<mxfile host="Electron" agent="Mozilla/5.0 (Windows NT 10.0; Win64; x64) AppleWebKit/537.36 (KHTML, like Gecko) draw.io/24.7.5 Chrome/126.0.6478.183 Electron/31.3.0 Safari/537.36" version="24.7.5">
  <diagram name="Page-1" id="GgJ8zCrCQC-leDapXSpX">
    <mxGraphModel dx="4169" dy="120" grid="1" gridSize="10" guides="1" tooltips="1" connect="1" arrows="1" fold="1" page="1" pageScale="1" pageWidth="1169" pageHeight="827" math="0" shadow="0">
      <root>
        <mxCell id="0" />
        <mxCell id="1" parent="0" />
        <mxCell id="T8izUvupypUlvR9dpGgw-207" value="" style="rounded=0;whiteSpace=wrap;html=1;fillColor=#dae8fc;strokeColor=#6c8ebf;strokeWidth=2;fontStyle=1" parent="1" vertex="1">
          <mxGeometry x="262.5" y="2908" width="50" height="512" as="geometry" />
        </mxCell>
        <mxCell id="T8izUvupypUlvR9dpGgw-4" value="&lt;font style=&quot;font-size: 30px;&quot;&gt;FORWARDING&lt;/font&gt;&lt;div&gt;&lt;font style=&quot;font-size: 30px;&quot;&gt;UNIT&lt;/font&gt;&lt;/div&gt;" style="rounded=0;whiteSpace=wrap;html=1;fillColor=default;strokeColor=default;strokeWidth=3;align=center;fontColor=#000000;rotation=0;perimeterSpacing=2;gradientColor=none;fontStyle=1" parent="1" vertex="1">
          <mxGeometry x="400" y="3492" width="440" height="179" as="geometry" />
        </mxCell>
        <mxCell id="T8izUvupypUlvR9dpGgw-2" value="" style="rounded=0;whiteSpace=wrap;html=1;fillColor=#dae8fc;strokeColor=#6c8ebf;strokeWidth=2;fontStyle=1" parent="1" vertex="1">
          <mxGeometry x="-396" y="2729" width="50" height="679" as="geometry" />
        </mxCell>
        <mxCell id="T8izUvupypUlvR9dpGgw-5" value="" style="rounded=0;whiteSpace=wrap;html=1;fillColor=#dae8fc;strokeColor=#6c8ebf;strokeWidth=2;fontStyle=1" parent="1" vertex="1">
          <mxGeometry x="1037" y="2908" width="50" height="500" as="geometry" />
        </mxCell>
        <mxCell id="T8izUvupypUlvR9dpGgw-6" value="" style="rounded=0;whiteSpace=wrap;html=1;fillColor=#dae8fc;strokeColor=#6c8ebf;strokeWidth=2;fontStyle=1" parent="1" vertex="1">
          <mxGeometry x="1804" y="2908" width="50" height="500" as="geometry" />
        </mxCell>
        <mxCell id="T8izUvupypUlvR9dpGgw-7" value="" style="edgeStyle=orthogonalEdgeStyle;rounded=0;orthogonalLoop=1;jettySize=auto;html=1;entryX=0;entryY=0.5;entryDx=0;entryDy=0;strokeWidth=3;fontStyle=1" parent="1" source="T8izUvupypUlvR9dpGgw-8" target="T8izUvupypUlvR9dpGgw-10" edge="1">
          <mxGeometry relative="1" as="geometry">
            <mxPoint x="-723.5" y="3117.5" as="targetPoint" />
          </mxGeometry>
        </mxCell>
        <mxCell id="T8izUvupypUlvR9dpGgw-8" value="&lt;br&gt;&lt;div&gt;&lt;br&gt;&lt;/div&gt;&lt;div&gt;&lt;br&gt;&lt;/div&gt;&lt;div&gt;&lt;br&gt;&lt;/div&gt;&lt;div&gt;&lt;br&gt;&lt;/div&gt;&lt;div&gt;&lt;br&gt;&lt;/div&gt;&lt;div&gt;&lt;br&gt;&lt;/div&gt;&lt;div&gt;&lt;br&gt;&lt;/div&gt;&lt;div&gt;&lt;br&gt;&lt;/div&gt;&lt;div&gt;&lt;br&gt;&lt;/div&gt;" style="rounded=0;whiteSpace=wrap;html=1;strokeWidth=3;align=left;fontStyle=1" parent="1" vertex="1">
          <mxGeometry x="-751" y="2972" width="102" height="292" as="geometry" />
        </mxCell>
        <mxCell id="T8izUvupypUlvR9dpGgw-9" value="INST" style="edgeStyle=orthogonalEdgeStyle;rounded=0;orthogonalLoop=1;jettySize=auto;html=1;strokeWidth=3;fontStyle=1" parent="1" source="T8izUvupypUlvR9dpGgw-10" edge="1">
          <mxGeometry relative="1" as="geometry">
            <mxPoint x="-397" y="3118" as="targetPoint" />
          </mxGeometry>
        </mxCell>
        <mxCell id="T8izUvupypUlvR9dpGgw-10" value="&lt;span&gt;&lt;font style=&quot;font-size: 22px;&quot;&gt;IMEM&lt;/font&gt;&lt;/span&gt;" style="whiteSpace=wrap;html=1;aspect=fixed;strokeWidth=3;fontStyle=1" parent="1" vertex="1">
          <mxGeometry x="-575" y="3077.5" width="80" height="80" as="geometry" />
        </mxCell>
        <mxCell id="T8izUvupypUlvR9dpGgw-11" value="&lt;font style=&quot;font-size: 22px;&quot;&gt;&lt;span&gt;+&lt;/span&gt;&lt;/font&gt;" style="shape=trapezoid;perimeter=trapezoidPerimeter;whiteSpace=wrap;html=1;fixedSize=1;rotation=90;strokeWidth=2;fontStyle=1" parent="1" vertex="1">
          <mxGeometry x="-559.49" y="3225.87" width="70.36" height="34.4" as="geometry" />
        </mxCell>
        <mxCell id="T8izUvupypUlvR9dpGgw-12" value="&lt;div&gt;&lt;span style=&quot;background-color: initial;&quot;&gt;DataD_AXI&lt;/span&gt;&lt;/div&gt;&lt;div&gt;&lt;span style=&quot;background-color: initial;&quot;&gt;&lt;br&gt;&lt;/span&gt;&lt;/div&gt;&lt;div&gt;&lt;span style=&quot;background-color: initial;&quot;&gt;AddrD_AXI&lt;/span&gt;&lt;/div&gt;&lt;div&gt;&lt;span style=&quot;background-color: initial;&quot;&gt;&lt;br&gt;&lt;/span&gt;&lt;/div&gt;&lt;span style=&quot;background-color: initial;&quot;&gt;DataD&lt;/span&gt;&lt;div&gt;&lt;span style=&quot;white-space: pre;&quot;&gt;&#x9;&lt;/span&gt;&lt;span style=&quot;white-space: pre;&quot;&gt;&#x9;&lt;/span&gt;&lt;span style=&quot;white-space: pre;&quot;&gt;&#x9;&lt;/span&gt;&lt;span style=&quot;background-color: initial;&quot;&gt;DataA&lt;/span&gt;&lt;br&gt;&lt;/div&gt;&lt;div&gt;AddrD&lt;span style=&quot;white-space: pre;&quot;&gt;&#x9;&lt;/span&gt;&lt;span style=&quot;white-space: pre;&quot;&gt;&#x9;&lt;/span&gt;&lt;/div&gt;&lt;div&gt;&lt;br&gt;&lt;/div&gt;&lt;div&gt;AddrA&lt;/div&gt;&lt;div&gt;&lt;span style=&quot;white-space: pre;&quot;&gt;&lt;span style=&quot;white-space: pre;&quot;&gt;&#x9;&lt;/span&gt;&lt;span style=&quot;white-space: pre;&quot;&gt;&#x9;&lt;/span&gt;&lt;span style=&quot;white-space: pre;&quot;&gt;&#x9;&lt;/span&gt;&lt;/span&gt;&lt;span style=&quot;background-color: initial;&quot;&gt;DataB&lt;/span&gt;&lt;/div&gt;&lt;div&gt;&lt;span style=&quot;background-color: initial;&quot;&gt;AddrB&lt;/span&gt;&lt;span style=&quot;background-color: initial; white-space: pre;&quot;&gt;&#x9;&lt;/span&gt;&lt;span style=&quot;background-color: initial; white-space: pre;&quot;&gt;&#x9;&lt;/span&gt;&lt;/div&gt;" style="rounded=0;whiteSpace=wrap;html=1;align=left;fontStyle=1;strokeWidth=3;" parent="1" vertex="1">
          <mxGeometry x="-220" y="2907" width="120" height="360" as="geometry" />
        </mxCell>
        <mxCell id="T8izUvupypUlvR9dpGgw-14" value="" style="shape=trapezoid;perimeter=trapezoidPerimeter;whiteSpace=wrap;html=1;fixedSize=1;rotation=90;strokeWidth=3;fontStyle=1" parent="1" vertex="1">
          <mxGeometry x="-16.75" y="3166.25" width="283.5" height="43" as="geometry" />
        </mxCell>
        <mxCell id="T8izUvupypUlvR9dpGgw-15" value="&lt;span style=&quot;font-size: 11px;&quot;&gt;&lt;font style=&quot;font-size: 11px;&quot;&gt;Branch&lt;/font&gt;&lt;/span&gt;&lt;div style=&quot;font-size: 11px;&quot;&gt;&lt;font style=&quot;font-size: 11px;&quot;&gt;Comp&lt;/font&gt;&lt;/div&gt;" style="text;strokeColor=none;align=center;fillColor=none;html=1;verticalAlign=middle;whiteSpace=wrap;rounded=0;fontStyle=1" parent="1" vertex="1">
          <mxGeometry x="95" y="3176.5" width="60" height="24.5" as="geometry" />
        </mxCell>
        <mxCell id="T8izUvupypUlvR9dpGgw-21" value="" style="rounded=0;whiteSpace=wrap;html=1;fillColor=#dae8fc;strokeColor=#6c8ebf;strokeWidth=2;fontStyle=1" parent="1" vertex="1">
          <mxGeometry x="1037" y="2547" width="50" height="360" as="geometry" />
        </mxCell>
        <mxCell id="T8izUvupypUlvR9dpGgw-22" value="" style="rounded=0;whiteSpace=wrap;html=1;fillColor=#dae8fc;strokeColor=#6c8ebf;strokeWidth=2;fontStyle=1" parent="1" vertex="1">
          <mxGeometry x="1804" y="2547" width="50" height="360" as="geometry" />
        </mxCell>
        <mxCell id="T8izUvupypUlvR9dpGgw-23" value="" style="shape=trapezoid;perimeter=trapezoidPerimeter;whiteSpace=wrap;html=1;fixedSize=1;rotation=90;strokeWidth=3;fontStyle=1" parent="1" vertex="1">
          <mxGeometry x="633" y="3058.3599999999997" width="239.5" height="147.25" as="geometry" />
        </mxCell>
        <mxCell id="T8izUvupypUlvR9dpGgw-24" value="0&lt;span style=&quot;white-space: pre;&quot;&gt;&#x9;&lt;/span&gt;1&lt;span style=&quot;white-space: pre;&quot;&gt;&#x9;&lt;/span&gt;2" style="rounded=1;whiteSpace=wrap;html=1;arcSize=50;rotation=90;fontStyle=1;strokeWidth=3;" parent="1" vertex="1">
          <mxGeometry x="369" y="3045.74" width="100" height="25" as="geometry" />
        </mxCell>
        <mxCell id="T8izUvupypUlvR9dpGgw-25" value="0&lt;span style=&quot;white-space: pre;&quot;&gt;&#x9;&lt;/span&gt;1&lt;span style=&quot;white-space: pre;&quot;&gt;&#x9;&lt;/span&gt;2" style="rounded=1;whiteSpace=wrap;html=1;arcSize=50;rotation=90;fontStyle=1;strokeWidth=3;" parent="1" vertex="1">
          <mxGeometry x="370" y="3194.74" width="100" height="25" as="geometry" />
        </mxCell>
        <mxCell id="T8izUvupypUlvR9dpGgw-26" value="1&lt;span style=&quot;white-space: pre;&quot;&gt;&#x9;&lt;/span&gt;0" style="rounded=1;whiteSpace=wrap;html=1;arcSize=50;rotation=90;fontStyle=1;strokeWidth=3;" parent="1" vertex="1">
          <mxGeometry x="533" y="3033.74" width="72" height="25" as="geometry" />
        </mxCell>
        <mxCell id="T8izUvupypUlvR9dpGgw-27" value="0&lt;span style=&quot;white-space: pre;&quot;&gt;&#x9;&lt;/span&gt;1" style="rounded=1;whiteSpace=wrap;html=1;arcSize=50;rotation=90;fontStyle=1;strokeWidth=3;" parent="1" vertex="1">
          <mxGeometry x="534" y="3206.74" width="72" height="25" as="geometry" />
        </mxCell>
        <mxCell id="T8izUvupypUlvR9dpGgw-28" value="&lt;span style=&quot;&quot;&gt;&lt;font style=&quot;font-size: 30px;&quot;&gt;ALU&lt;/font&gt;&lt;/span&gt;" style="text;html=1;align=center;verticalAlign=middle;whiteSpace=wrap;rounded=0;fontSize=22;fontStyle=1" parent="1" vertex="1">
          <mxGeometry x="690" y="3094.3599999999997" width="105" height="75.25" as="geometry" />
        </mxCell>
        <mxCell id="T8izUvupypUlvR9dpGgw-30" value="opcode_in[6:0]&lt;div&gt;&lt;span style=&quot;white-space: pre;&quot;&gt;&#x9;&lt;/span&gt;&lt;span style=&quot;white-space: pre;&quot;&gt;&#x9;&lt;/span&gt;&lt;span style=&quot;white-space: pre;&quot;&gt;&#x9;&lt;/span&gt;&lt;span style=&quot;white-space: pre;&quot;&gt;&#x9;&lt;/span&gt;&lt;span style=&quot;white-space: pre;&quot;&gt;&#x9;&lt;/span&gt;&lt;span style=&quot;white-space: pre;&quot;&gt;&#x9;&lt;/span&gt;MEMRW_DMEM&lt;br&gt;&lt;/div&gt;&lt;div&gt;MEMRW&lt;br&gt;&lt;div&gt;&lt;div style=&quot;text-align: center;&quot;&gt;&lt;span style=&quot;background-color: transparent; color: light-dark(rgb(0, 0, 0), rgb(255, 255, 255)); white-space: pre;&quot;&gt;&#x9;&lt;/span&gt;&lt;span style=&quot;background-color: transparent; color: light-dark(rgb(0, 0, 0), rgb(255, 255, 255)); white-space: pre;&quot;&gt;&#x9;&lt;/span&gt;&lt;span style=&quot;background-color: transparent; color: light-dark(rgb(0, 0, 0), rgb(255, 255, 255)); white-space: pre;&quot;&gt;&#x9;&lt;/span&gt;&lt;span style=&quot;background-color: transparent; color: light-dark(rgb(0, 0, 0), rgb(255, 255, 255)); white-space: pre;&quot;&gt;&#x9;&lt;/span&gt;&lt;span style=&quot;background-color: transparent; color: light-dark(rgb(0, 0, 0), rgb(255, 255, 255)); white-space: pre;&quot;&gt;&#x9;&lt;/span&gt;&amp;nbsp; &amp;nbsp; ADDR_DMEM&lt;/div&gt;&lt;div&gt;ADDR&lt;/div&gt;&lt;div&gt;&lt;span style=&quot;white-space: pre;&quot;&gt;&#x9;&lt;/span&gt;&lt;span style=&quot;white-space: pre;&quot;&gt;&#x9;&lt;/span&gt;&lt;span style=&quot;white-space: pre;&quot;&gt;&#x9;&lt;/span&gt;&lt;span style=&quot;white-space: pre;&quot;&gt;&#x9;&lt;/span&gt;&lt;span style=&quot;white-space: pre;&quot;&gt;&#x9;&lt;/span&gt;&lt;span style=&quot;white-space: pre;&quot;&gt;&#x9;&lt;/span&gt;&lt;span style=&quot;background-color: transparent; color: light-dark(rgb(0, 0, 0), rgb(255, 255, 255));&quot;&gt;DATAW_DMEM&lt;/span&gt;&lt;br&gt;&lt;/div&gt;&lt;div&gt;&lt;div&gt;DATAW&lt;/div&gt;&lt;div&gt;&lt;span style=&quot;white-space: pre;&quot;&gt;&#x9;&lt;/span&gt;&lt;span style=&quot;white-space: pre;&quot;&gt;&#x9;&lt;/span&gt;&lt;span style=&quot;white-space: pre;&quot;&gt;&#x9;&lt;/span&gt;&lt;span style=&quot;white-space: pre;&quot;&gt;&#x9;&lt;/span&gt;&lt;span style=&quot;white-space: pre;&quot;&gt;&#x9;&lt;/span&gt;&amp;nbsp; &amp;nbsp; &amp;nbsp; &lt;span style=&quot;white-space: pre;&quot;&gt;&#x9;&lt;/span&gt;&lt;span style=&quot;background-color: transparent; color: light-dark(rgb(0, 0, 0), rgb(255, 255, 255));&quot;&gt;funct3_DMEM&lt;/span&gt;&lt;/div&gt;&lt;div&gt;&lt;br&gt;&lt;/div&gt;&lt;div&gt;&lt;span style=&quot;white-space: pre;&quot;&gt;&#x9;&lt;/span&gt;&lt;span style=&quot;white-space: pre;&quot;&gt;&#x9;&lt;/span&gt;&lt;span style=&quot;white-space: pre;&quot;&gt;&#x9;&lt;/span&gt;&lt;span style=&quot;white-space: pre;&quot;&gt;&#x9;&lt;/span&gt;&lt;span style=&quot;white-space: pre;&quot;&gt;&#x9;&lt;/span&gt;&lt;span style=&quot;white-space: pre;&quot;&gt;&#x9;&lt;/span&gt;&lt;br&gt;&lt;/div&gt;&lt;div&gt;funct3&lt;span style=&quot;white-space: pre;&quot;&gt;&#x9;&lt;/span&gt;&lt;span style=&quot;white-space: pre;&quot;&gt;&#x9;&lt;/span&gt;&lt;span style=&quot;white-space: pre;&quot;&gt;&#x9;&lt;/span&gt;&lt;span style=&quot;white-space: pre;&quot;&gt;&#x9;&lt;/span&gt;&lt;span style=&quot;white-space: pre;&quot;&gt;&#x9;&lt;/span&gt;&lt;/div&gt;&lt;div&gt;&lt;span style=&quot;white-space: pre;&quot;&gt;&#x9;&lt;/span&gt;&lt;span style=&quot;white-space: pre;&quot;&gt;&#x9;&lt;/span&gt;&lt;span style=&quot;white-space: pre;&quot;&gt;&#x9;&lt;/span&gt;&lt;span style=&quot;white-space: pre;&quot;&gt;&#x9;&lt;/span&gt;&lt;span style=&quot;white-space: pre;&quot;&gt;&#x9;&lt;/span&gt;&lt;span style=&quot;white-space: pre;&quot;&gt;&#x9;&lt;/span&gt;&lt;span style=&quot;text-align: center; background-color: transparent; color: light-dark(rgb(0, 0, 0), rgb(255, 255, 255));&quot;&gt;ADDR_AXI&lt;/span&gt;&lt;br&gt;&lt;/div&gt;&lt;div&gt;RegWEn&lt;span style=&quot;background-color: transparent; color: light-dark(rgb(0, 0, 0), rgb(255, 255, 255)); white-space: pre;&quot;&gt;&#x9;&lt;/span&gt;&lt;span style=&quot;background-color: transparent; color: light-dark(rgb(0, 0, 0), rgb(255, 255, 255)); white-space: pre;&quot;&gt;&#x9;&lt;/span&gt;&lt;span style=&quot;background-color: transparent; color: light-dark(rgb(0, 0, 0), rgb(255, 255, 255)); white-space: pre;&quot;&gt;&#x9;&lt;/span&gt;&lt;span style=&quot;background-color: transparent; color: light-dark(rgb(0, 0, 0), rgb(255, 255, 255)); white-space: pre;&quot;&gt;&#x9;&lt;/span&gt;&lt;span style=&quot;background-color: transparent; color: light-dark(rgb(0, 0, 0), rgb(255, 255, 255)); white-space: pre;&quot;&gt;&#x9;&lt;/span&gt;&lt;/div&gt;&lt;div&gt;&lt;span style=&quot;white-space: pre;&quot;&gt;&#x9;&lt;/span&gt;&lt;span style=&quot;white-space: pre;&quot;&gt;&#x9;&lt;/span&gt;&lt;span style=&quot;white-space: pre;&quot;&gt;&#x9;&lt;/span&gt;&lt;span style=&quot;white-space: pre;&quot;&gt;&#x9;&lt;/span&gt;&lt;span style=&quot;white-space: pre;&quot;&gt;&#x9;&lt;/span&gt;&lt;span style=&quot;white-space: pre;&quot;&gt;&#x9;&lt;/span&gt;&lt;span style=&quot;background-color: transparent; color: light-dark(rgb(0, 0, 0), rgb(255, 255, 255));&quot;&gt;DATAW_AXI&lt;/span&gt;&lt;br&gt;&lt;/div&gt;&lt;div&gt;AddrD&lt;span style=&quot;white-space: pre;&quot;&gt;&#x9;&lt;/span&gt;&lt;span style=&quot;white-space: pre;&quot;&gt;&#x9;&lt;/span&gt;&lt;span style=&quot;white-space: pre;&quot;&gt;&#x9;&lt;/span&gt;&lt;span style=&quot;white-space: pre;&quot;&gt;&#x9;&lt;/span&gt;&lt;span style=&quot;white-space: pre;&quot;&gt;&#x9;&lt;/span&gt;&lt;/div&gt;&lt;div&gt;&lt;span style=&quot;white-space: pre;&quot;&gt;&#x9;&lt;/span&gt;&lt;span style=&quot;white-space: pre;&quot;&gt;&#x9;&lt;/span&gt;&lt;span style=&quot;white-space: pre;&quot;&gt;&#x9;&lt;/span&gt;&lt;span style=&quot;white-space: pre;&quot;&gt;&#x9;&lt;/span&gt;&lt;span style=&quot;white-space: pre;&quot;&gt;&#x9;&lt;/span&gt;&lt;span style=&quot;white-space: pre;&quot;&gt;&#x9;&lt;/span&gt;&lt;span style=&quot;background-color: transparent; color: light-dark(rgb(0, 0, 0), rgb(255, 255, 255));&quot;&gt;funct3_AXI&lt;/span&gt;&lt;span style=&quot;background-color: transparent; color: light-dark(rgb(0, 0, 0), rgb(255, 255, 255)); white-space: pre;&quot;&gt;&#x9;&lt;/span&gt;&lt;br&gt;&lt;/div&gt;&lt;div&gt;&lt;br&gt;&lt;/div&gt;&lt;div&gt;&lt;span style=&quot;white-space: pre;&quot;&gt;&#x9;&lt;/span&gt;&lt;span style=&quot;white-space: pre;&quot;&gt;&#x9;&lt;/span&gt;&lt;span style=&quot;white-space: pre;&quot;&gt;&#x9;&lt;/span&gt;&lt;span style=&quot;white-space: pre;&quot;&gt;&#x9;&lt;/span&gt;&lt;span style=&quot;white-space: pre;&quot;&gt;&#x9;&lt;/span&gt;&lt;span style=&quot;white-space: pre;&quot;&gt;&#x9;&lt;/span&gt;RegWEn_out&lt;/div&gt;&lt;div&gt;&lt;span style=&quot;white-space: pre;&quot;&gt;&#x9;&lt;/span&gt;&lt;span style=&quot;white-space: pre;&quot;&gt;&#x9;&lt;/span&gt;&lt;span style=&quot;white-space: pre;&quot;&gt;&#x9;&lt;/span&gt;&lt;span style=&quot;white-space: pre;&quot;&gt;&#x9;&lt;/span&gt;&lt;span style=&quot;white-space: pre;&quot;&gt;&#x9;&lt;/span&gt;&lt;span style=&quot;white-space: pre;&quot;&gt;&#x9;&lt;/span&gt;&lt;/div&gt;&lt;/div&gt;&lt;/div&gt;&lt;div&gt;&lt;span style=&quot;white-space: pre;&quot;&gt;&#x9;&lt;/span&gt;&lt;span style=&quot;white-space: pre;&quot;&gt;&#x9;&lt;/span&gt;&lt;span style=&quot;white-space: pre;&quot;&gt;&#x9;&lt;/span&gt;&lt;span style=&quot;white-space: pre;&quot;&gt;&#x9;&lt;/span&gt;&lt;span style=&quot;white-space: pre;&quot;&gt;&#x9;&lt;/span&gt;&lt;span style=&quot;white-space: pre;&quot;&gt;&#x9;&lt;/span&gt;AddrD_out&lt;br&gt;&lt;/div&gt;&lt;/div&gt;&lt;div&gt;&lt;br&gt;&lt;/div&gt;&lt;div&gt;&lt;br&gt;&lt;/div&gt;&lt;div&gt;&lt;span style=&quot;white-space: pre;&quot;&gt;&#x9;&lt;/span&gt;&lt;span style=&quot;white-space: pre;&quot;&gt;&#x9;&lt;/span&gt;&lt;span style=&quot;white-space: pre;&quot;&gt;&#x9;&lt;/span&gt;&lt;span style=&quot;white-space: pre;&quot;&gt;&#x9;&lt;/span&gt;&lt;span style=&quot;white-space: pre;&quot;&gt;&#x9;&lt;/span&gt;&lt;span style=&quot;white-space: pre;&quot;&gt;&#x9;&lt;/span&gt;&lt;span style=&quot;background-color: transparent;&quot;&gt;TXN_AXI_INIT&lt;/span&gt;&lt;br&gt;&lt;/div&gt;&lt;div&gt;&lt;br&gt;&lt;/div&gt;&lt;div&gt;&lt;br&gt;&lt;/div&gt;&lt;div&gt;&lt;br&gt;&lt;/div&gt;" style="rounded=0;whiteSpace=wrap;html=1;strokeWidth=3;align=left;fontStyle=1" parent="1" vertex="1">
          <mxGeometry x="1223" y="3057.74" width="257" height="378.26" as="geometry" />
        </mxCell>
        <mxCell id="T8izUvupypUlvR9dpGgw-31" value="&lt;font style=&quot;font-size: 25px;&quot;&gt;MUX DMEM AXI&lt;/font&gt;" style="text;strokeColor=none;align=center;fillColor=none;html=1;verticalAlign=middle;whiteSpace=wrap;rounded=0;fontStyle=1" parent="1" vertex="1">
          <mxGeometry x="1270.25" y="3194.74" width="162.5" height="30" as="geometry" />
        </mxCell>
        <mxCell id="T8izUvupypUlvR9dpGgw-33" value="&lt;div&gt;MemRW&lt;/div&gt;&lt;div&gt;&lt;br&gt;&lt;/div&gt;&lt;div&gt;&lt;div&gt;addr&lt;/div&gt;&lt;/div&gt;&lt;div&gt;&lt;br&gt;&lt;/div&gt;&lt;div&gt;dataW&lt;/div&gt;&lt;div&gt;&lt;br&gt;&lt;/div&gt;&lt;div&gt;funct3&lt;/div&gt;&lt;div&gt;&lt;br&gt;&lt;/div&gt;&lt;div&gt;&lt;br&gt;&lt;/div&gt;&lt;div&gt;&lt;br&gt;&lt;/div&gt;" style="rounded=0;whiteSpace=wrap;html=1;strokeWidth=3;align=left;fontStyle=1" parent="1" vertex="1">
          <mxGeometry x="1561" y="3056.74" width="185" height="182.25" as="geometry" />
        </mxCell>
        <mxCell id="T8izUvupypUlvR9dpGgw-34" value="" style="endArrow=classic;html=1;rounded=0;fontSize=16;strokeWidth=2;entryX=0.003;entryY=0.137;entryDx=0;entryDy=0;entryPerimeter=0;fontStyle=1" parent="1" target="T8izUvupypUlvR9dpGgw-33" edge="1">
          <mxGeometry width="50" height="50" relative="1" as="geometry">
            <mxPoint x="1480" y="3082" as="sourcePoint" />
            <mxPoint x="1526" y="3082" as="targetPoint" />
          </mxGeometry>
        </mxCell>
        <mxCell id="T8izUvupypUlvR9dpGgw-35" value="" style="endArrow=classic;html=1;rounded=0;exitX=1.001;exitY=0.138;exitDx=0;exitDy=0;exitPerimeter=0;fontSize=16;strokeWidth=2;fontStyle=1" parent="1" source="T8izUvupypUlvR9dpGgw-30" edge="1">
          <mxGeometry width="50" height="50" relative="1" as="geometry">
            <mxPoint x="1457" y="3111" as="sourcePoint" />
            <mxPoint x="1560" y="3110" as="targetPoint" />
          </mxGeometry>
        </mxCell>
        <mxCell id="T8izUvupypUlvR9dpGgw-36" value="" style="endArrow=classic;html=1;rounded=0;exitX=0.999;exitY=0.218;exitDx=0;exitDy=0;exitPerimeter=0;entryX=-0.004;entryY=0.457;entryDx=0;entryDy=0;fontSize=16;strokeWidth=2;fontStyle=1;entryPerimeter=0;" parent="1" source="T8izUvupypUlvR9dpGgw-30" target="T8izUvupypUlvR9dpGgw-33" edge="1">
          <mxGeometry width="50" height="50" relative="1" as="geometry">
            <mxPoint x="1499" y="3155" as="sourcePoint" />
            <mxPoint x="1549" y="3105" as="targetPoint" />
          </mxGeometry>
        </mxCell>
        <mxCell id="T8izUvupypUlvR9dpGgw-37" value="" style="endArrow=classic;html=1;rounded=0;exitX=0.998;exitY=0.298;exitDx=0;exitDy=0;exitPerimeter=0;entryX=0.002;entryY=0.621;entryDx=0;entryDy=0;entryPerimeter=0;fontSize=16;strokeWidth=2;fontStyle=1" parent="1" source="T8izUvupypUlvR9dpGgw-30" target="T8izUvupypUlvR9dpGgw-33" edge="1">
          <mxGeometry width="50" height="50" relative="1" as="geometry">
            <mxPoint x="1510" y="3171" as="sourcePoint" />
            <mxPoint x="1560" y="3121" as="targetPoint" />
          </mxGeometry>
        </mxCell>
        <mxCell id="T8izUvupypUlvR9dpGgw-38" value="" style="endArrow=classic;html=1;rounded=0;exitX=1.004;exitY=0.673;exitDx=0;exitDy=0;exitPerimeter=0;entryX=0.027;entryY=0.807;entryDx=0;entryDy=0;entryPerimeter=0;fillColor=#b1ddf0;strokeColor=#10739e;fontStyle=1" parent="1" source="T8izUvupypUlvR9dpGgw-30" target="T8izUvupypUlvR9dpGgw-6" edge="1">
          <mxGeometry width="50" height="50" relative="1" as="geometry">
            <mxPoint x="1417" y="3308" as="sourcePoint" />
            <mxPoint x="1467" y="3258" as="targetPoint" />
          </mxGeometry>
        </mxCell>
        <mxCell id="T8izUvupypUlvR9dpGgw-39" value="" style="endArrow=classic;html=1;rounded=0;entryX=0.007;entryY=0.865;entryDx=0;entryDy=0;entryPerimeter=0;exitX=1;exitY=0.75;exitDx=0;exitDy=0;fontStyle=1" parent="1" source="T8izUvupypUlvR9dpGgw-30" target="T8izUvupypUlvR9dpGgw-6" edge="1">
          <mxGeometry width="50" height="50" relative="1" as="geometry">
            <mxPoint x="1467" y="3341" as="sourcePoint" />
            <mxPoint x="1498" y="3255" as="targetPoint" />
          </mxGeometry>
        </mxCell>
        <mxCell id="T8izUvupypUlvR9dpGgw-41" value="&lt;font style=&quot;font-size: 25px;&quot;&gt;AXI-LITE&lt;/font&gt;&lt;div&gt;&lt;font style=&quot;font-size: 25px;&quot;&gt;INTERFACE&lt;/font&gt;&lt;/div&gt;" style="rounded=0;whiteSpace=wrap;html=1;fontStyle=1;strokeWidth=3;" parent="1" vertex="1">
          <mxGeometry x="1021" y="3680" width="589" height="120" as="geometry" />
        </mxCell>
        <mxCell id="T8izUvupypUlvR9dpGgw-42" value="" style="endArrow=classic;html=1;rounded=0;exitX=0.998;exitY=0.87;exitDx=0;exitDy=0;exitPerimeter=0;entryX=0.807;entryY=-0.006;entryDx=0;entryDy=0;strokeWidth=2;entryPerimeter=0;fontStyle=1" parent="1" source="T8izUvupypUlvR9dpGgw-30" target="T8izUvupypUlvR9dpGgw-41" edge="1">
          <mxGeometry width="50" height="50" relative="1" as="geometry">
            <mxPoint x="1456.687" y="3386.96098" as="sourcePoint" />
            <mxPoint x="1496.5" y="3587" as="targetPoint" />
            <Array as="points">
              <mxPoint x="1497" y="3387" />
            </Array>
          </mxGeometry>
        </mxCell>
        <mxCell id="T8izUvupypUlvR9dpGgw-43" value="" style="endArrow=classic;html=1;rounded=0;exitX=0.998;exitY=0.6;exitDx=0;exitDy=0;exitPerimeter=0;entryX=0.828;entryY=0;entryDx=0;entryDy=0;entryPerimeter=0;strokeWidth=2;fontStyle=1" parent="1" source="T8izUvupypUlvR9dpGgw-30" target="T8izUvupypUlvR9dpGgw-41" edge="1">
          <mxGeometry width="50" height="50" relative="1" as="geometry">
            <mxPoint x="1547" y="3508" as="sourcePoint" />
            <mxPoint x="1512" y="3586" as="targetPoint" />
            <Array as="points">
              <mxPoint x="1481" y="3284" />
              <mxPoint x="1509" y="3284" />
            </Array>
          </mxGeometry>
        </mxCell>
        <mxCell id="T8izUvupypUlvR9dpGgw-44" value="" style="endArrow=classic;html=1;rounded=0;exitX=1;exitY=0.524;exitDx=0;exitDy=0;exitPerimeter=0;entryX=0.854;entryY=-0.001;entryDx=0;entryDy=0;entryPerimeter=0;strokeWidth=2;fontStyle=1" parent="1" source="T8izUvupypUlvR9dpGgw-30" target="T8izUvupypUlvR9dpGgw-41" edge="1">
          <mxGeometry width="50" height="50" relative="1" as="geometry">
            <mxPoint x="1512" y="3391" as="sourcePoint" />
            <mxPoint x="1525" y="3585" as="targetPoint" />
            <Array as="points">
              <mxPoint x="1523" y="3256" />
            </Array>
          </mxGeometry>
        </mxCell>
        <mxCell id="T8izUvupypUlvR9dpGgw-45" value="" style="endArrow=classic;html=1;rounded=0;exitX=1;exitY=0.447;exitDx=0;exitDy=0;exitPerimeter=0;entryX=0.877;entryY=-0.004;entryDx=0;entryDy=0;entryPerimeter=0;strokeWidth=2;fontStyle=1" parent="1" source="T8izUvupypUlvR9dpGgw-30" target="T8izUvupypUlvR9dpGgw-41" edge="1">
          <mxGeometry width="50" height="50" relative="1" as="geometry">
            <mxPoint x="1503" y="3222" as="sourcePoint" />
            <mxPoint x="1539" y="3585" as="targetPoint" />
            <Array as="points">
              <mxPoint x="1540" y="3227" />
            </Array>
          </mxGeometry>
        </mxCell>
        <mxCell id="T8izUvupypUlvR9dpGgw-48" value="RegWEn_AXI" style="text;strokeColor=none;align=left;fillColor=none;html=1;verticalAlign=middle;whiteSpace=wrap;rounded=0;fontStyle=1" parent="1" vertex="1">
          <mxGeometry x="1024" y="3755" width="60" height="30" as="geometry" />
        </mxCell>
        <mxCell id="T8izUvupypUlvR9dpGgw-49" value="" style="endArrow=classic;html=1;rounded=0;exitX=0;exitY=0.25;exitDx=0;exitDy=0;entryX=0.007;entryY=0.299;entryDx=0;entryDy=0;entryPerimeter=0;fontSize=12;strokeWidth=3;fontStyle=1" parent="1" source="T8izUvupypUlvR9dpGgw-41" target="T8izUvupypUlvR9dpGgw-12" edge="1">
          <mxGeometry width="50" height="50" relative="1" as="geometry">
            <mxPoint x="1025" y="3721" as="sourcePoint" />
            <mxPoint x="-297" y="3471" as="targetPoint" />
            <Array as="points">
              <mxPoint x="-320" y="3710" />
              <mxPoint x="-311" y="3015" />
            </Array>
          </mxGeometry>
        </mxCell>
        <mxCell id="T8izUvupypUlvR9dpGgw-50" value="" style="endArrow=classic;html=1;rounded=0;entryX=-0.003;entryY=0.375;entryDx=0;entryDy=0;entryPerimeter=0;fontSize=12;strokeWidth=3;exitX=0;exitY=0.5;exitDx=0;exitDy=0;fontStyle=1" parent="1" source="T8izUvupypUlvR9dpGgw-41" target="T8izUvupypUlvR9dpGgw-12" edge="1">
          <mxGeometry width="50" height="50" relative="1" as="geometry">
            <mxPoint x="1025" y="3776" as="sourcePoint" />
            <mxPoint x="-209" y="3072" as="targetPoint" />
            <Array as="points">
              <mxPoint x="-300" y="3740" />
              <mxPoint x="-297" y="3042" />
            </Array>
          </mxGeometry>
        </mxCell>
        <mxCell id="T8izUvupypUlvR9dpGgw-51" value="" style="endArrow=classic;html=1;rounded=0;exitX=0;exitY=0.75;exitDx=0;exitDy=0;entryX=0.5;entryY=1;entryDx=0;entryDy=0;fontStyle=1" parent="1" source="T8izUvupypUlvR9dpGgw-41" target="T8izUvupypUlvR9dpGgw-12" edge="1">
          <mxGeometry width="50" height="50" relative="1" as="geometry">
            <mxPoint x="609" y="3373" as="sourcePoint" />
            <mxPoint x="-248" y="3809" as="targetPoint" />
            <Array as="points">
              <mxPoint x="-160" y="3770" />
            </Array>
          </mxGeometry>
        </mxCell>
        <mxCell id="T8izUvupypUlvR9dpGgw-52" value="" style="endArrow=classic;html=1;rounded=0;exitX=1;exitY=0.5;exitDx=0;exitDy=0;entryX=0.183;entryY=0.926;entryDx=0;entryDy=0;entryPerimeter=0;strokeWidth=3;fontStyle=1" parent="1" source="T8izUvupypUlvR9dpGgw-12" edge="1">
          <mxGeometry width="50" height="50" relative="1" as="geometry">
            <mxPoint x="-53" y="3161" as="sourcePoint" />
            <mxPoint x="38.350000000000136" y="3070.558" as="targetPoint" />
            <Array as="points">
              <mxPoint x="-22" y="3087" />
              <mxPoint x="-22" y="3071" />
            </Array>
          </mxGeometry>
        </mxCell>
        <mxCell id="T8izUvupypUlvR9dpGgw-53" value="" style="endArrow=classic;html=1;rounded=0;exitX=0.987;exitY=0.661;exitDx=0;exitDy=0;exitPerimeter=0;entryX=0.17;entryY=0.991;entryDx=0;entryDy=0;entryPerimeter=0;strokeWidth=3;fontStyle=1" parent="1" source="T8izUvupypUlvR9dpGgw-12" edge="1">
          <mxGeometry width="50" height="50" relative="1" as="geometry">
            <mxPoint x="-4" y="3112" as="sourcePoint" />
            <mxPoint x="36.725000000000136" y="3230.92" as="targetPoint" />
            <Array as="points">
              <mxPoint x="-25" y="3145" />
              <mxPoint x="-25" y="3231" />
            </Array>
          </mxGeometry>
        </mxCell>
        <mxCell id="T8izUvupypUlvR9dpGgw-54" value="BrUn" style="endArrow=classic;html=1;rounded=0;exitX=1.007;exitY=0.553;exitDx=0;exitDy=0;exitPerimeter=0;entryX=0;entryY=0.5;entryDx=0;entryDy=0;fillColor=#b1ddf0;strokeColor=#10739e;fontStyle=1" parent="1" target="T8izUvupypUlvR9dpGgw-14" edge="1">
          <mxGeometry x="-0.4011" y="2" width="50" height="50" relative="1" as="geometry">
            <mxPoint x="-92.16000000000031" y="2689.6" as="sourcePoint" />
            <mxPoint x="113" y="3007" as="targetPoint" />
            <Array as="points">
              <mxPoint x="125" y="2689" />
            </Array>
            <mxPoint as="offset" />
          </mxGeometry>
        </mxCell>
        <mxCell id="T8izUvupypUlvR9dpGgw-55" value="" style="endArrow=classic;html=1;rounded=0;entryX=0.5;entryY=1;entryDx=0;entryDy=0;exitX=0.5;exitY=0;exitDx=0;exitDy=0;fillColor=#b1ddf0;strokeColor=#10739e;fontStyle=1" parent="1" source="T8izUvupypUlvR9dpGgw-14" target="T8izUvupypUlvR9dpGgw-175" edge="1">
          <mxGeometry width="50" height="50" relative="1" as="geometry">
            <mxPoint x="-159" y="2843" as="sourcePoint" />
            <mxPoint x="-158.6400000000001" y="2779.2" as="targetPoint" />
            <Array as="points">
              <mxPoint x="185" y="3188" />
              <mxPoint x="185" y="2832" />
              <mxPoint x="-153" y="2830" />
            </Array>
          </mxGeometry>
        </mxCell>
        <mxCell id="T8izUvupypUlvR9dpGgw-56" value="" style="endArrow=classic;html=1;rounded=0;exitX=0.998;exitY=0.576;exitDx=0;exitDy=0;exitPerimeter=0;entryX=0;entryY=0.5;entryDx=0;entryDy=0;strokeWidth=3;fontStyle=1" parent="1" source="T8izUvupypUlvR9dpGgw-2" edge="1">
          <mxGeometry width="50" height="50" relative="1" as="geometry">
            <mxPoint x="-29" y="2834" as="sourcePoint" />
            <mxPoint x="-213" y="2679" as="targetPoint" />
            <Array as="points">
              <mxPoint x="-324" y="3120" />
              <mxPoint x="-324" y="2679" />
            </Array>
          </mxGeometry>
        </mxCell>
        <mxCell id="T8izUvupypUlvR9dpGgw-57" value="" style="endArrow=classic;html=1;rounded=0;entryX=0.002;entryY=0.622;entryDx=0;entryDy=0;entryPerimeter=0;strokeWidth=2;fontStyle=1" parent="1" target="T8izUvupypUlvR9dpGgw-12" edge="1">
          <mxGeometry width="50" height="50" relative="1" as="geometry">
            <mxPoint x="-324" y="3119" as="sourcePoint" />
            <mxPoint x="15" y="3032" as="targetPoint" />
            <Array as="points">
              <mxPoint x="-324" y="3131" />
            </Array>
          </mxGeometry>
        </mxCell>
        <mxCell id="T8izUvupypUlvR9dpGgw-58" value="" style="endArrow=classic;html=1;rounded=0;entryX=0.003;entryY=0.697;entryDx=0;entryDy=0;entryPerimeter=0;strokeWidth=2;fontStyle=1" parent="1" target="T8izUvupypUlvR9dpGgw-12" edge="1">
          <mxGeometry width="50" height="50" relative="1" as="geometry">
            <mxPoint x="-324" y="3130" as="sourcePoint" />
            <mxPoint x="15" y="3032" as="targetPoint" />
            <Array as="points">
              <mxPoint x="-324" y="3158" />
            </Array>
          </mxGeometry>
        </mxCell>
        <mxCell id="T8izUvupypUlvR9dpGgw-59" value="" style="endArrow=classic;html=1;rounded=0;entryX=0.25;entryY=1;entryDx=0;entryDy=0;strokeWidth=3;fontStyle=1" parent="1" target="T8izUvupypUlvR9dpGgw-11" edge="1">
          <mxGeometry width="50" height="50" relative="1" as="geometry">
            <mxPoint x="-633" y="3118" as="sourcePoint" />
            <mxPoint x="-633" y="3253" as="targetPoint" />
            <Array as="points">
              <mxPoint x="-633" y="3226" />
            </Array>
          </mxGeometry>
        </mxCell>
        <mxCell id="T8izUvupypUlvR9dpGgw-60" value="&lt;font style=&quot;font-size: 18px;&quot;&gt;4&lt;/font&gt;" style="endArrow=classic;html=1;rounded=0;entryX=0.75;entryY=1;entryDx=0;entryDy=0;strokeWidth=3;fontStyle=1" parent="1" target="T8izUvupypUlvR9dpGgw-11" edge="1">
          <mxGeometry x="-1" y="7" width="50" height="50" relative="1" as="geometry">
            <mxPoint x="-610" y="3261" as="sourcePoint" />
            <mxPoint x="-513" y="3143" as="targetPoint" />
            <mxPoint x="-7" y="7" as="offset" />
          </mxGeometry>
        </mxCell>
        <mxCell id="T8izUvupypUlvR9dpGgw-61" value="" style="edgeStyle=orthogonalEdgeStyle;rounded=0;orthogonalLoop=1;jettySize=auto;html=1;strokeWidth=3;fontStyle=1" parent="1" source="T8izUvupypUlvR9dpGgw-62" target="T8izUvupypUlvR9dpGgw-8" edge="1">
          <mxGeometry relative="1" as="geometry" />
        </mxCell>
        <mxCell id="T8izUvupypUlvR9dpGgw-62" value="1&lt;span style=&quot;white-space: pre;&quot;&gt;&#x9;&lt;/span&gt;0" style="rounded=1;whiteSpace=wrap;html=1;arcSize=50;rotation=90;fontStyle=1;strokeWidth=3;" parent="1" vertex="1">
          <mxGeometry x="-849" y="3105" width="72" height="25" as="geometry" />
        </mxCell>
        <mxCell id="T8izUvupypUlvR9dpGgw-63" value="" style="endArrow=classic;html=1;rounded=0;exitX=0.5;exitY=0;exitDx=0;exitDy=0;entryX=0.691;entryY=0.979;entryDx=0;entryDy=0;entryPerimeter=0;strokeWidth=3;fontStyle=1" parent="1" source="T8izUvupypUlvR9dpGgw-11" target="T8izUvupypUlvR9dpGgw-62" edge="1">
          <mxGeometry width="50" height="50" relative="1" as="geometry">
            <mxPoint x="-550.4899999999998" y="3242.95" as="sourcePoint" />
            <mxPoint x="-826" y="3129" as="targetPoint" />
            <Array as="points">
              <mxPoint x="-470" y="3243" />
              <mxPoint x="-470" y="3325" />
              <mxPoint x="-896" y="3325" />
              <mxPoint x="-896" y="3131" />
            </Array>
          </mxGeometry>
        </mxCell>
        <mxCell id="T8izUvupypUlvR9dpGgw-64" value="PCSel" style="endArrow=classic;html=1;rounded=0;exitX=-0.014;exitY=0.07;exitDx=0;exitDy=0;exitPerimeter=0;entryX=0;entryY=0.5;entryDx=0;entryDy=0;strokeWidth=1;fontStyle=1;strokeColor=#10739e;" parent="1" source="T8izUvupypUlvR9dpGgw-20" target="T8izUvupypUlvR9dpGgw-62" edge="1">
          <mxGeometry width="50" height="50" relative="1" as="geometry">
            <mxPoint x="-210.24" y="2650" as="sourcePoint" />
            <mxPoint x="-776" y="3081" as="targetPoint" />
            <Array as="points">
              <mxPoint x="330" y="2575" />
              <mxPoint x="330" y="2410" />
              <mxPoint x="-813" y="2410" />
              <mxPoint x="-813" y="2650" />
            </Array>
          </mxGeometry>
        </mxCell>
        <mxCell id="T8izUvupypUlvR9dpGgw-65" value="" style="endArrow=classic;html=1;rounded=0;entryX=0.5;entryY=1;entryDx=0;entryDy=0;strokeWidth=3;fontStyle=1" parent="1" target="T8izUvupypUlvR9dpGgw-1" edge="1">
          <mxGeometry width="50" height="50" relative="1" as="geometry">
            <mxPoint x="-324" y="3157" as="sourcePoint" />
            <mxPoint x="-139.75" y="3356.25" as="targetPoint" />
            <Array as="points">
              <mxPoint x="-324" y="3410" />
            </Array>
          </mxGeometry>
        </mxCell>
        <mxCell id="T8izUvupypUlvR9dpGgw-66" value="" style="endArrow=classic;html=1;rounded=0;exitX=0.5;exitY=0;exitDx=0;exitDy=0;entryX=-0.009;entryY=0.98;entryDx=0;entryDy=0;entryPerimeter=0;strokeWidth=3;fontStyle=1" parent="1" source="T8izUvupypUlvR9dpGgw-1" target="T8izUvupypUlvR9dpGgw-207" edge="1">
          <mxGeometry width="50" height="50" relative="1" as="geometry">
            <mxPoint x="-146" y="3350" as="sourcePoint" />
            <mxPoint x="261.79999999999995" y="3392" as="targetPoint" />
          </mxGeometry>
        </mxCell>
        <mxCell id="T8izUvupypUlvR9dpGgw-69" value="" style="endArrow=classic;html=1;rounded=0;entryX=0;entryY=0.25;entryDx=0;entryDy=0;strokeWidth=3;fontStyle=1" parent="1" edge="1">
          <mxGeometry width="50" height="50" relative="1" as="geometry">
            <mxPoint x="-22" y="3071" as="sourcePoint" />
            <mxPoint x="262.5" y="3033" as="targetPoint" />
            <Array as="points">
              <mxPoint x="-22" y="3032" />
            </Array>
          </mxGeometry>
        </mxCell>
        <mxCell id="T8izUvupypUlvR9dpGgw-70" value="" style="endArrow=classic;html=1;rounded=0;entryX=-0.021;entryY=0.546;entryDx=0;entryDy=0;entryPerimeter=0;strokeWidth=3;fontStyle=1" parent="1" edge="1">
          <mxGeometry width="50" height="50" relative="1" as="geometry">
            <mxPoint x="-63" y="3146" as="sourcePoint" />
            <mxPoint x="261.45000000000005" y="3181" as="targetPoint" />
            <Array as="points">
              <mxPoint x="-63" y="3003" />
              <mxPoint x="213" y="3003" />
              <mxPoint x="213" y="3181" />
            </Array>
          </mxGeometry>
        </mxCell>
        <mxCell id="T8izUvupypUlvR9dpGgw-71" value="" style="endArrow=classic;html=1;rounded=0;entryX=0.25;entryY=1;entryDx=0;entryDy=0;strokeWidth=3;fontStyle=1" parent="1" target="T8izUvupypUlvR9dpGgw-25" edge="1">
          <mxGeometry width="50" height="50" relative="1" as="geometry">
            <mxPoint x="313" y="3182" as="sourcePoint" />
            <mxPoint x="293" y="3042" as="targetPoint" />
          </mxGeometry>
        </mxCell>
        <mxCell id="T8izUvupypUlvR9dpGgw-72" value="" style="endArrow=classic;html=1;rounded=0;entryX=0.25;entryY=1;entryDx=0;entryDy=0;exitX=1;exitY=0.25;exitDx=0;exitDy=0;fontStyle=1" parent="1" target="T8izUvupypUlvR9dpGgw-24" edge="1">
          <mxGeometry width="50" height="50" relative="1" as="geometry">
            <mxPoint x="312.5" y="3033" as="sourcePoint" />
            <mxPoint x="258" y="3078" as="targetPoint" />
          </mxGeometry>
        </mxCell>
        <mxCell id="T8izUvupypUlvR9dpGgw-73" value="" style="endArrow=classic;html=1;rounded=0;entryX=0.661;entryY=0.929;entryDx=0;entryDy=0;exitX=0.5;exitY=0;exitDx=0;exitDy=0;entryPerimeter=0;strokeWidth=3;fontStyle=1" parent="1" source="T8izUvupypUlvR9dpGgw-24" target="T8izUvupypUlvR9dpGgw-26" edge="1">
          <mxGeometry width="50" height="50" relative="1" as="geometry">
            <mxPoint x="346" y="3187" as="sourcePoint" />
            <mxPoint x="396" y="3137" as="targetPoint" />
          </mxGeometry>
        </mxCell>
        <mxCell id="T8izUvupypUlvR9dpGgw-74" value="" style="endArrow=classic;html=1;rounded=0;entryX=0.326;entryY=1.017;entryDx=0;entryDy=0;exitX=0.5;exitY=0;exitDx=0;exitDy=0;entryPerimeter=0;strokeWidth=3;fontStyle=1" parent="1" source="T8izUvupypUlvR9dpGgw-25" target="T8izUvupypUlvR9dpGgw-27" edge="1">
          <mxGeometry width="50" height="50" relative="1" as="geometry">
            <mxPoint x="346" y="3187" as="sourcePoint" />
            <mxPoint x="396" y="3137" as="targetPoint" />
          </mxGeometry>
        </mxCell>
        <mxCell id="T8izUvupypUlvR9dpGgw-75" value="" style="endArrow=classic;html=1;rounded=0;entryX=0.336;entryY=1.001;entryDx=0;entryDy=0;entryPerimeter=0;exitX=0.5;exitY=0;exitDx=0;exitDy=0;strokeWidth=3;fontStyle=1" parent="1" source="T8izUvupypUlvR9dpGgw-26" target="T8izUvupypUlvR9dpGgw-23" edge="1">
          <mxGeometry width="50" height="50" relative="1" as="geometry">
            <mxPoint x="538" y="3135" as="sourcePoint" />
            <mxPoint x="588" y="3085" as="targetPoint" />
            <Array as="points">
              <mxPoint x="628" y="3046" />
              <mxPoint x="628" y="3093" />
            </Array>
          </mxGeometry>
        </mxCell>
        <mxCell id="T8izUvupypUlvR9dpGgw-76" value="" style="endArrow=classic;html=1;rounded=0;exitX=0.5;exitY=0;exitDx=0;exitDy=0;entryX=0.707;entryY=1.001;entryDx=0;entryDy=0;entryPerimeter=0;strokeWidth=3;fontStyle=1" parent="1" source="T8izUvupypUlvR9dpGgw-27" target="T8izUvupypUlvR9dpGgw-23" edge="1">
          <mxGeometry width="50" height="50" relative="1" as="geometry">
            <mxPoint x="758" y="3216" as="sourcePoint" />
            <mxPoint x="808" y="3166" as="targetPoint" />
            <Array as="points">
              <mxPoint x="630" y="3219" />
              <mxPoint x="630" y="3182" />
            </Array>
          </mxGeometry>
        </mxCell>
        <mxCell id="T8izUvupypUlvR9dpGgw-77" value="" style="endArrow=classic;html=1;rounded=0;exitX=0.5;exitY=0;exitDx=0;exitDy=0;entryX=-0.007;entryY=0.448;entryDx=0;entryDy=0;entryPerimeter=0;strokeWidth=3;fontStyle=1" parent="1" source="T8izUvupypUlvR9dpGgw-23" target="T8izUvupypUlvR9dpGgw-5" edge="1">
          <mxGeometry width="50" height="50" relative="1" as="geometry">
            <mxPoint x="1028" y="3471" as="sourcePoint" />
            <mxPoint x="1078" y="3421" as="targetPoint" />
          </mxGeometry>
        </mxCell>
        <mxCell id="T8izUvupypUlvR9dpGgw-78" value="opcode[6:0]" style="endArrow=classic;html=1;rounded=0;entryX=-0.012;entryY=0.84;entryDx=0;entryDy=0;entryPerimeter=0;fontStyle=1" parent="1" target="T8izUvupypUlvR9dpGgw-20" edge="1">
          <mxGeometry width="50" height="50" relative="1" as="geometry">
            <mxPoint x="-324" y="2852" as="sourcePoint" />
            <mxPoint x="261" y="2853" as="targetPoint" />
          </mxGeometry>
        </mxCell>
        <mxCell id="T8izUvupypUlvR9dpGgw-79" value="opcode[6:0]" style="endArrow=classic;html=1;rounded=0;exitX=1.023;exitY=0.837;exitDx=0;exitDy=0;exitPerimeter=0;entryX=-0.033;entryY=0.843;entryDx=0;entryDy=0;entryPerimeter=0;fontStyle=1" parent="1" source="T8izUvupypUlvR9dpGgw-20" target="T8izUvupypUlvR9dpGgw-21" edge="1">
          <mxGeometry width="50" height="50" relative="1" as="geometry">
            <mxPoint x="316" y="2893" as="sourcePoint" />
            <mxPoint x="1036" y="2850" as="targetPoint" />
          </mxGeometry>
        </mxCell>
        <mxCell id="T8izUvupypUlvR9dpGgw-80" value="" style="endArrow=classic;html=1;rounded=0;entryX=0;entryY=0.027;entryDx=0;entryDy=0;entryPerimeter=0;fontStyle=1" parent="1" target="T8izUvupypUlvR9dpGgw-30" edge="1">
          <mxGeometry width="50" height="50" relative="1" as="geometry">
            <mxPoint x="1087" y="2850" as="sourcePoint" />
            <mxPoint x="1136" y="2919" as="targetPoint" />
            <Array as="points">
              <mxPoint x="1129" y="2850" />
              <mxPoint x="1130" y="3068" />
            </Array>
          </mxGeometry>
        </mxCell>
        <mxCell id="T8izUvupypUlvR9dpGgw-81" value="" style="endArrow=classic;html=1;rounded=0;entryX=0.002;entryY=0.174;entryDx=0;entryDy=0;entryPerimeter=0;exitX=0.978;exitY=0.452;exitDx=0;exitDy=0;exitPerimeter=0;strokeWidth=2;fontStyle=1" parent="1" source="T8izUvupypUlvR9dpGgw-5" target="T8izUvupypUlvR9dpGgw-30" edge="1">
          <mxGeometry width="50" height="50" relative="1" as="geometry">
            <mxPoint x="1049" y="3178" as="sourcePoint" />
            <mxPoint x="1099" y="3128" as="targetPoint" />
            <Array as="points">
              <mxPoint x="1142" y="3134" />
              <mxPoint x="1142" y="3124" />
            </Array>
          </mxGeometry>
        </mxCell>
        <mxCell id="T8izUvupypUlvR9dpGgw-82" value="opcode[6:0]&lt;span style=&quot;white-space: pre;&quot;&gt;&#x9;&lt;/span&gt;&lt;span style=&quot;white-space: pre;&quot;&gt;&#x9;&lt;span style=&quot;white-space: pre;&quot;&gt;&#x9;&lt;/span&gt;   &lt;/span&gt;STALL&lt;span style=&quot;white-space: pre;&quot;&gt;&#x9;&lt;/span&gt;&lt;span style=&quot;white-space: pre;&quot;&gt;&#x9;&lt;/span&gt;&lt;span style=&quot;white-space: pre;&quot;&gt;&#x9;&lt;/span&gt;stall_jump" style="rounded=0;whiteSpace=wrap;html=1;strokeWidth=2;align=left;fontStyle=1" parent="1" vertex="1">
          <mxGeometry x="-218" y="2514" width="318" height="29" as="geometry" />
        </mxCell>
        <mxCell id="T8izUvupypUlvR9dpGgw-83" value="" style="endArrow=classic;html=1;rounded=0;entryX=0;entryY=0.5;entryDx=0;entryDy=0;strokeWidth=2;fontStyle=1" parent="1" target="T8izUvupypUlvR9dpGgw-82" edge="1">
          <mxGeometry width="50" height="50" relative="1" as="geometry">
            <mxPoint x="-282" y="2852" as="sourcePoint" />
            <mxPoint x="-45" y="2769" as="targetPoint" />
            <Array as="points">
              <mxPoint x="-282" y="2528" />
            </Array>
          </mxGeometry>
        </mxCell>
        <mxCell id="T8izUvupypUlvR9dpGgw-84" value="&lt;div&gt;&lt;div&gt;&lt;br&gt;&lt;/div&gt;&lt;/div&gt;" style="rounded=0;whiteSpace=wrap;html=1;align=left;fontStyle=1;strokeWidth=3;" parent="1" vertex="1">
          <mxGeometry x="1682.5" y="3679.5" width="242" height="120.5" as="geometry" />
        </mxCell>
        <mxCell id="T8izUvupypUlvR9dpGgw-85" value="&lt;span style=&quot;font-size: 25px;&quot;&gt;AXI&lt;/span&gt;&lt;div&gt;&lt;span style=&quot;font-size: 25px;&quot;&gt;HANDLER&lt;/span&gt;&lt;/div&gt;" style="text;strokeColor=none;align=center;fillColor=none;html=1;verticalAlign=middle;whiteSpace=wrap;rounded=0;fontStyle=1" parent="1" vertex="1">
          <mxGeometry x="1705.25" y="3724.75" width="196.5" height="30" as="geometry" />
        </mxCell>
        <mxCell id="T8izUvupypUlvR9dpGgw-86" value="" style="endArrow=classic;html=1;rounded=0;entryX=-0.007;entryY=0.121;entryDx=0;entryDy=0;entryPerimeter=0;strokeWidth=3;fontStyle=1" parent="1" target="T8izUvupypUlvR9dpGgw-2" edge="1">
          <mxGeometry width="50" height="50" relative="1" as="geometry">
            <mxPoint x="-470" y="3243" as="sourcePoint" />
            <mxPoint x="-84" y="3091" as="targetPoint" />
            <Array as="points">
              <mxPoint x="-470" y="2811" />
            </Array>
          </mxGeometry>
        </mxCell>
        <mxCell id="T8izUvupypUlvR9dpGgw-87" value="pcPlus4" style="endArrow=classic;html=1;rounded=0;exitX=0.993;exitY=0.118;exitDx=0;exitDy=0;exitPerimeter=0;entryX=-0.041;entryY=0.716;entryDx=0;entryDy=0;entryPerimeter=0;strokeWidth=3;fontStyle=1" parent="1" source="T8izUvupypUlvR9dpGgw-2" target="T8izUvupypUlvR9dpGgw-20" edge="1">
          <mxGeometry width="50" height="50" relative="1" as="geometry">
            <mxPoint x="-486" y="3088" as="sourcePoint" />
            <mxPoint x="-436" y="3038" as="targetPoint" />
          </mxGeometry>
        </mxCell>
        <mxCell id="T8izUvupypUlvR9dpGgw-88" value="pcPlus4" style="endArrow=classic;html=1;rounded=0;exitX=1.003;exitY=0.713;exitDx=0;exitDy=0;exitPerimeter=0;entryX=-0.007;entryY=0.719;entryDx=0;entryDy=0;entryPerimeter=0;strokeWidth=3;fontStyle=1" parent="1" source="T8izUvupypUlvR9dpGgw-20" target="T8izUvupypUlvR9dpGgw-21" edge="1">
          <mxGeometry width="50" height="50" relative="1" as="geometry">
            <mxPoint x="434" y="2756" as="sourcePoint" />
            <mxPoint x="484" y="2706" as="targetPoint" />
          </mxGeometry>
        </mxCell>
        <mxCell id="T8izUvupypUlvR9dpGgw-89" value="" style="endArrow=classic;html=1;rounded=0;exitX=1;exitY=0.75;exitDx=0;exitDy=0;entryX=0;entryY=0.75;entryDx=0;entryDy=0;strokeWidth=3;fontStyle=1" parent="1" target="T8izUvupypUlvR9dpGgw-84" edge="1">
          <mxGeometry width="50" height="50" relative="1" as="geometry">
            <mxPoint x="1087.0000000000005" y="2808" as="sourcePoint" />
            <mxPoint x="1160" y="3532" as="targetPoint" />
            <Array as="points">
              <mxPoint x="1177" y="2808" />
              <mxPoint x="1180" y="3480" />
              <mxPoint x="1640" y="3480" />
              <mxPoint x="1640" y="3770" />
            </Array>
          </mxGeometry>
        </mxCell>
        <mxCell id="T8izUvupypUlvR9dpGgw-90" value="AddrD[4:0]" style="endArrow=classic;html=1;rounded=0;entryX=-0.01;entryY=0.885;entryDx=0;entryDy=0;entryPerimeter=0;fontStyle=1" parent="1" target="T8izUvupypUlvR9dpGgw-20" edge="1">
          <mxGeometry width="50" height="50" relative="1" as="geometry">
            <mxPoint x="-324" y="2870" as="sourcePoint" />
            <mxPoint x="408" y="3019" as="targetPoint" />
          </mxGeometry>
        </mxCell>
        <mxCell id="T8izUvupypUlvR9dpGgw-91" value="AddrD[4:0]" style="endArrow=classic;html=1;rounded=0;exitX=1.005;exitY=0.88;exitDx=0;exitDy=0;exitPerimeter=0;entryX=-0.037;entryY=0.884;entryDx=0;entryDy=0;entryPerimeter=0;fontStyle=1" parent="1" source="T8izUvupypUlvR9dpGgw-20" target="T8izUvupypUlvR9dpGgw-21" edge="1">
          <mxGeometry width="50" height="50" relative="1" as="geometry">
            <mxPoint x="-92" y="2883" as="sourcePoint" />
            <mxPoint x="-42" y="2833" as="targetPoint" />
          </mxGeometry>
        </mxCell>
        <mxCell id="T8izUvupypUlvR9dpGgw-92" value="RegWEn" style="endArrow=classic;html=1;rounded=0;entryX=0.006;entryY=0.118;entryDx=0;entryDy=0;entryPerimeter=0;exitX=0.761;exitY=0.069;exitDx=0;exitDy=0;exitPerimeter=0;fillColor=#b1ddf0;strokeColor=#10739e;fontStyle=1" parent="1" target="T8izUvupypUlvR9dpGgw-20" edge="1">
          <mxGeometry width="50" height="50" relative="1" as="geometry">
            <mxPoint x="-121.68000000000029" y="2592.8" as="sourcePoint" />
            <mxPoint x="-218" y="2547" as="targetPoint" />
          </mxGeometry>
        </mxCell>
        <mxCell id="T8izUvupypUlvR9dpGgw-93" value="ASel" style="endArrow=classic;html=1;rounded=0;exitX=1;exitY=0;exitDx=0;exitDy=0;entryX=-0.01;entryY=0.162;entryDx=0;entryDy=0;entryPerimeter=0;fillColor=#b1ddf0;strokeColor=#10739e;fontStyle=1" parent="1" target="T8izUvupypUlvR9dpGgw-20" edge="1">
          <mxGeometry width="50" height="50" relative="1" as="geometry">
            <mxPoint x="-110.57359312880726" y="2608.289321881346" as="sourcePoint" />
            <mxPoint x="-20.449650254360463" y="2649" as="targetPoint" />
          </mxGeometry>
        </mxCell>
        <mxCell id="T8izUvupypUlvR9dpGgw-94" value="BSel" style="endArrow=classic;html=1;rounded=0;exitX=0.927;exitY=0.244;exitDx=0;exitDy=0;exitPerimeter=0;entryX=-0.025;entryY=0.222;entryDx=0;entryDy=0;entryPerimeter=0;fillColor=#b1ddf0;strokeColor=#10739e;fontStyle=1" parent="1" edge="1">
          <mxGeometry width="50" height="50" relative="1" as="geometry">
            <mxPoint x="-101.76000000000022" y="2627.8" as="sourcePoint" />
            <mxPoint x="261.25" y="2626.92" as="targetPoint" />
          </mxGeometry>
        </mxCell>
        <mxCell id="T8izUvupypUlvR9dpGgw-95" value="ALUSel" style="endArrow=classic;html=1;rounded=0;exitX=0.972;exitY=0.322;exitDx=0;exitDy=0;exitPerimeter=0;entryX=-0.01;entryY=0.259;entryDx=0;entryDy=0;entryPerimeter=0;fillColor=#b1ddf0;strokeColor=#10739e;fontStyle=1" parent="1" edge="1">
          <mxGeometry width="50" height="50" relative="1" as="geometry">
            <mxPoint x="-96.3599999999999" y="2646.3999999999996" as="sourcePoint" />
            <mxPoint x="262" y="2646.24" as="targetPoint" />
          </mxGeometry>
        </mxCell>
        <mxCell id="T8izUvupypUlvR9dpGgw-96" value="MemRW" style="endArrow=classic;html=1;rounded=0;entryX=-0.038;entryY=0.325;entryDx=0;entryDy=0;entryPerimeter=0;exitX=1;exitY=0.444;exitDx=0;exitDy=0;exitPerimeter=0;fillColor=#b1ddf0;strokeColor=#10739e;fontStyle=1" parent="1" edge="1">
          <mxGeometry width="50" height="50" relative="1" as="geometry">
            <mxPoint x="-93" y="2667.8" as="sourcePoint" />
            <mxPoint x="261.5999999999999" y="2667" as="targetPoint" />
          </mxGeometry>
        </mxCell>
        <mxCell id="T8izUvupypUlvR9dpGgw-97" value="RegWEn" style="endArrow=classic;html=1;rounded=0;exitX=0.995;exitY=0.124;exitDx=0;exitDy=0;exitPerimeter=0;entryX=0.02;entryY=0.133;entryDx=0;entryDy=0;entryPerimeter=0;fillColor=#b1ddf0;strokeColor=#10739e;fontStyle=1" parent="1" source="T8izUvupypUlvR9dpGgw-20" target="T8izUvupypUlvR9dpGgw-21" edge="1">
          <mxGeometry width="50" height="50" relative="1" as="geometry">
            <mxPoint x="400" y="2598" as="sourcePoint" />
            <mxPoint x="1035" y="2595" as="targetPoint" />
          </mxGeometry>
        </mxCell>
        <mxCell id="T8izUvupypUlvR9dpGgw-98" value="ASel" style="endArrow=classic;html=1;rounded=0;exitX=1.01;exitY=0.164;exitDx=0;exitDy=0;entryX=0;entryY=0.5;entryDx=0;entryDy=0;exitPerimeter=0;fillColor=#b1ddf0;strokeColor=#10739e;fontStyle=1" parent="1" source="T8izUvupypUlvR9dpGgw-20" target="T8izUvupypUlvR9dpGgw-26" edge="1">
          <mxGeometry x="0.0133" width="50" height="50" relative="1" as="geometry">
            <mxPoint x="411" y="2613" as="sourcePoint" />
            <mxPoint x="784" y="2613" as="targetPoint" />
            <Array as="points">
              <mxPoint x="569" y="2609" />
            </Array>
            <mxPoint as="offset" />
          </mxGeometry>
        </mxCell>
        <mxCell id="T8izUvupypUlvR9dpGgw-99" value="BSel" style="endArrow=classic;html=1;rounded=0;exitX=0.992;exitY=0.211;exitDx=0;exitDy=0;exitPerimeter=0;entryX=0;entryY=0.5;entryDx=0;entryDy=0;fillColor=#b1ddf0;strokeColor=#10739e;fontStyle=1" parent="1" source="T8izUvupypUlvR9dpGgw-20" target="T8izUvupypUlvR9dpGgw-27" edge="1">
          <mxGeometry x="-0.4629" width="50" height="50" relative="1" as="geometry">
            <mxPoint x="420" y="2633" as="sourcePoint" />
            <mxPoint x="1036" y="2620" as="targetPoint" />
            <Array as="points">
              <mxPoint x="472" y="2626" />
              <mxPoint x="472" y="3150" />
              <mxPoint x="570" y="3150" />
            </Array>
            <mxPoint as="offset" />
          </mxGeometry>
        </mxCell>
        <mxCell id="T8izUvupypUlvR9dpGgw-100" value="MemRW" style="endArrow=classic;html=1;rounded=0;entryX=0.015;entryY=0.333;entryDx=0;entryDy=0;entryPerimeter=0;exitX=1.006;exitY=0.33;exitDx=0;exitDy=0;exitPerimeter=0;fillColor=#b1ddf0;strokeColor=#10739e;fontStyle=1" parent="1" source="T8izUvupypUlvR9dpGgw-20" target="T8izUvupypUlvR9dpGgw-21" edge="1">
          <mxGeometry width="50" height="50" relative="1" as="geometry">
            <mxPoint x="429" y="2673" as="sourcePoint" />
            <mxPoint x="783.5999999999999" y="2672" as="targetPoint" />
          </mxGeometry>
        </mxCell>
        <mxCell id="T8izUvupypUlvR9dpGgw-101" value="ALUSel" style="endArrow=classic;html=1;rounded=0;exitX=1.004;exitY=0.271;exitDx=0;exitDy=0;exitPerimeter=0;entryX=0;entryY=0.5;entryDx=0;entryDy=0;fillColor=#b1ddf0;strokeColor=#10739e;fontStyle=1" parent="1" source="T8izUvupypUlvR9dpGgw-20" target="T8izUvupypUlvR9dpGgw-23" edge="1">
          <mxGeometry width="50" height="50" relative="1" as="geometry">
            <mxPoint x="425.6400000000001" y="2651.3999999999996" as="sourcePoint" />
            <mxPoint x="784" y="2651.24" as="targetPoint" />
            <Array as="points">
              <mxPoint x="753" y="2648" />
            </Array>
          </mxGeometry>
        </mxCell>
        <mxCell id="T8izUvupypUlvR9dpGgw-102" value="pc" style="endArrow=classic;html=1;rounded=0;entryX=0.012;entryY=0.081;entryDx=0;entryDy=0;entryPerimeter=0;strokeWidth=3;fontStyle=1" parent="1" target="T8izUvupypUlvR9dpGgw-2" edge="1">
          <mxGeometry width="50" height="50" relative="1" as="geometry">
            <mxPoint x="-633" y="3116" as="sourcePoint" />
            <mxPoint x="-633" y="2760" as="targetPoint" />
            <Array as="points">
              <mxPoint x="-633" y="2784" />
            </Array>
          </mxGeometry>
        </mxCell>
        <mxCell id="T8izUvupypUlvR9dpGgw-103" value="pc" style="endArrow=classic;html=1;rounded=0;exitX=0.957;exitY=0.085;exitDx=0;exitDy=0;exitPerimeter=0;entryX=-0.008;entryY=0.652;entryDx=0;entryDy=0;entryPerimeter=0;strokeWidth=3;fontStyle=1" parent="1" source="T8izUvupypUlvR9dpGgw-2" target="T8izUvupypUlvR9dpGgw-20" edge="1">
          <mxGeometry width="50" height="50" relative="1" as="geometry">
            <mxPoint x="-180" y="2847" as="sourcePoint" />
            <mxPoint x="-130" y="2797" as="targetPoint" />
          </mxGeometry>
        </mxCell>
        <mxCell id="T8izUvupypUlvR9dpGgw-104" value="pc" style="endArrow=classic;html=1;rounded=0;exitX=1.006;exitY=0.644;exitDx=0;exitDy=0;exitPerimeter=0;entryX=0.025;entryY=0.653;entryDx=0;entryDy=0;entryPerimeter=0;strokeWidth=3;fontStyle=1" parent="1" source="T8izUvupypUlvR9dpGgw-20" target="T8izUvupypUlvR9dpGgw-21" edge="1">
          <mxGeometry width="50" height="50" relative="1" as="geometry">
            <mxPoint x="344" y="2717" as="sourcePoint" />
            <mxPoint x="861" y="2779" as="targetPoint" />
          </mxGeometry>
        </mxCell>
        <mxCell id="T8izUvupypUlvR9dpGgw-105" value="" style="endArrow=classic;html=1;rounded=0;entryX=0.33;entryY=1.02;entryDx=0;entryDy=0;entryPerimeter=0;strokeWidth=3;fontStyle=1" parent="1" target="T8izUvupypUlvR9dpGgw-26" edge="1">
          <mxGeometry width="50" height="50" relative="1" as="geometry">
            <mxPoint x="503" y="2783" as="sourcePoint" />
            <mxPoint x="768" y="2953" as="targetPoint" />
            <Array as="points">
              <mxPoint x="503" y="3034" />
            </Array>
          </mxGeometry>
        </mxCell>
        <mxCell id="T8izUvupypUlvR9dpGgw-106" value="" style="endArrow=classic;html=1;rounded=0;exitX=1.009;exitY=0.98;exitDx=0;exitDy=0;exitPerimeter=0;entryX=0.75;entryY=1;entryDx=0;entryDy=0;strokeWidth=3;fontStyle=1" parent="1" source="T8izUvupypUlvR9dpGgw-207" target="T8izUvupypUlvR9dpGgw-27" edge="1">
          <mxGeometry width="50" height="50" relative="1" as="geometry">
            <mxPoint x="312.10000000000036" y="3389.5" as="sourcePoint" />
            <mxPoint x="473" y="3306" as="targetPoint" />
            <Array as="points">
              <mxPoint x="483" y="3410" />
              <mxPoint x="483" y="3237" />
            </Array>
          </mxGeometry>
        </mxCell>
        <mxCell id="T8izUvupypUlvR9dpGgw-107" value="&lt;font style=&quot;font-size: 25px;&quot;&gt;&lt;span&gt;PC&lt;/span&gt;&lt;/font&gt;" style="text;strokeColor=none;align=center;fillColor=none;html=1;verticalAlign=middle;whiteSpace=wrap;rounded=0;fontStyle=1" parent="1" vertex="1">
          <mxGeometry x="-751" y="3105" width="101" height="30" as="geometry" />
        </mxCell>
        <mxCell id="T8izUvupypUlvR9dpGgw-108" value="&lt;font style=&quot;font-size: 20px;&quot;&gt;DMEM&lt;/font&gt;" style="text;strokeColor=none;align=center;fillColor=none;html=1;verticalAlign=middle;whiteSpace=wrap;rounded=0;fontStyle=1" parent="1" vertex="1">
          <mxGeometry x="1612.5" y="3120.36" width="82" height="55" as="geometry" />
        </mxCell>
        <mxCell id="T8izUvupypUlvR9dpGgw-109" value="&lt;font style=&quot;font-size: 22px;&quot;&gt;0&lt;span style=&quot;white-space: pre;&quot;&gt;&#x9;&lt;/span&gt;1&lt;span style=&quot;white-space: pre;&quot;&gt;&#x9;&lt;/span&gt;2&lt;/font&gt;" style="rounded=1;whiteSpace=wrap;html=1;arcSize=50;rotation=270;fontStyle=1;strokeWidth=3;flipV=0;flipH=1;direction=west;" parent="1" vertex="1">
          <mxGeometry x="1915" y="3002" width="175" height="48" as="geometry" />
        </mxCell>
        <mxCell id="T8izUvupypUlvR9dpGgw-110" value="funct3[2:0]" style="endArrow=classic;html=1;rounded=0;entryX=-0.02;entryY=0.923;entryDx=0;entryDy=0;entryPerimeter=0;fontStyle=1" parent="1" target="T8izUvupypUlvR9dpGgw-20" edge="1">
          <mxGeometry width="50" height="50" relative="1" as="geometry">
            <mxPoint x="-323" y="2884" as="sourcePoint" />
            <mxPoint x="424" y="2851" as="targetPoint" />
          </mxGeometry>
        </mxCell>
        <mxCell id="T8izUvupypUlvR9dpGgw-111" value="funct3[2:0]" style="endArrow=classic;html=1;rounded=0;exitX=1.01;exitY=0.922;exitDx=0;exitDy=0;exitPerimeter=0;entryX=-0.064;entryY=0.928;entryDx=0;entryDy=0;entryPerimeter=0;fontStyle=1" parent="1" source="T8izUvupypUlvR9dpGgw-20" target="T8izUvupypUlvR9dpGgw-21" edge="1">
          <mxGeometry width="50" height="50" relative="1" as="geometry">
            <mxPoint x="565" y="2847" as="sourcePoint" />
            <mxPoint x="1034" y="2884" as="targetPoint" />
          </mxGeometry>
        </mxCell>
        <mxCell id="T8izUvupypUlvR9dpGgw-112" value="" style="endArrow=classic;html=1;rounded=0;exitX=0.996;exitY=0.332;exitDx=0;exitDy=0;exitPerimeter=0;entryX=0.006;entryY=0.099;entryDx=0;entryDy=0;entryPerimeter=0;fillColor=#b1ddf0;strokeColor=#10739e;fontStyle=1" parent="1" source="T8izUvupypUlvR9dpGgw-21" target="T8izUvupypUlvR9dpGgw-30" edge="1">
          <mxGeometry width="50" height="50" relative="1" as="geometry">
            <mxPoint x="704" y="2791" as="sourcePoint" />
            <mxPoint x="754" y="2741" as="targetPoint" />
            <Array as="points">
              <mxPoint x="1149" y="2667" />
              <mxPoint x="1149" y="3095" />
            </Array>
          </mxGeometry>
        </mxCell>
        <mxCell id="T8izUvupypUlvR9dpGgw-113" value="" style="endArrow=classic;html=1;rounded=0;entryX=0.006;entryY=0.403;entryDx=0;entryDy=0;entryPerimeter=0;fontStyle=1" parent="1" target="T8izUvupypUlvR9dpGgw-30" edge="1">
          <mxGeometry width="50" height="50" relative="1" as="geometry">
            <mxPoint x="1087" y="2879" as="sourcePoint" />
            <mxPoint x="838" y="2754" as="targetPoint" />
            <Array as="points">
              <mxPoint x="1115" y="2879" />
              <mxPoint x="1115" y="3210" />
            </Array>
          </mxGeometry>
        </mxCell>
        <mxCell id="T8izUvupypUlvR9dpGgw-114" value="" style="endArrow=classic;html=1;rounded=0;strokeWidth=3;fontStyle=1;exitX=0.5;exitY=0;exitDx=0;exitDy=0;" parent="1" source="T8izUvupypUlvR9dpGgw-25" edge="1">
          <mxGeometry width="50" height="50" relative="1" as="geometry">
            <mxPoint x="530" y="3200" as="sourcePoint" />
            <mxPoint x="1035" y="3318" as="targetPoint" />
            <Array as="points">
              <mxPoint x="530" y="3207" />
              <mxPoint x="530" y="3320" />
            </Array>
          </mxGeometry>
        </mxCell>
        <mxCell id="T8izUvupypUlvR9dpGgw-115" value="" style="endArrow=classic;html=1;rounded=0;exitX=1.018;exitY=0.823;exitDx=0;exitDy=0;exitPerimeter=0;entryX=0;entryY=0.25;entryDx=0;entryDy=0;strokeWidth=3;fontStyle=1" parent="1" source="T8izUvupypUlvR9dpGgw-5" target="T8izUvupypUlvR9dpGgw-30" edge="1">
          <mxGeometry width="50" height="50" relative="1" as="geometry">
            <mxPoint x="797" y="3261" as="sourcePoint" />
            <mxPoint x="847" y="3211" as="targetPoint" />
            <Array as="points">
              <mxPoint x="1129" y="3320" />
              <mxPoint x="1129" y="3152" />
            </Array>
          </mxGeometry>
        </mxCell>
        <mxCell id="T8izUvupypUlvR9dpGgw-116" value="" style="endArrow=classic;html=1;rounded=0;exitX=1.04;exitY=0.125;exitDx=0;exitDy=0;exitPerimeter=0;entryX=0.001;entryY=0.483;entryDx=0;entryDy=0;entryPerimeter=0;fillColor=#b1ddf0;strokeColor=#10739e;fontStyle=1" parent="1" target="T8izUvupypUlvR9dpGgw-30" edge="1">
          <mxGeometry width="50" height="50" relative="1" as="geometry">
            <mxPoint x="1089.0000000000005" y="2596" as="sourcePoint" />
            <mxPoint x="1197" y="2596" as="targetPoint" />
            <Array as="points">
              <mxPoint x="1163" y="2596" />
              <mxPoint x="1163" y="3240" />
            </Array>
          </mxGeometry>
        </mxCell>
        <mxCell id="T8izUvupypUlvR9dpGgw-117" value="" style="endArrow=classic;html=1;rounded=0;exitX=1.013;exitY=0.881;exitDx=0;exitDy=0;exitPerimeter=0;entryX=-0.005;entryY=0.555;entryDx=0;entryDy=0;entryPerimeter=0;fontStyle=1" parent="1" source="T8izUvupypUlvR9dpGgw-21" target="T8izUvupypUlvR9dpGgw-30" edge="1">
          <mxGeometry width="50" height="50" relative="1" as="geometry">
            <mxPoint x="1155" y="2823" as="sourcePoint" />
            <mxPoint x="1205" y="2773" as="targetPoint" />
            <Array as="points">
              <mxPoint x="1107" y="2864" />
              <mxPoint x="1107" y="3268" />
            </Array>
          </mxGeometry>
        </mxCell>
        <mxCell id="T8izUvupypUlvR9dpGgw-118" value="DataR" style="text;strokeColor=none;align=center;fillColor=none;html=1;verticalAlign=middle;whiteSpace=wrap;rounded=0;fontStyle=1" parent="1" vertex="1">
          <mxGeometry x="1686" y="3135" width="60" height="30" as="geometry" />
        </mxCell>
        <mxCell id="T8izUvupypUlvR9dpGgw-119" value="" style="endArrow=classic;html=1;rounded=0;entryX=-0.028;entryY=0.484;entryDx=0;entryDy=0;entryPerimeter=0;exitX=1;exitY=0.5;exitDx=0;exitDy=0;strokeWidth=3;fontStyle=1" parent="1" source="T8izUvupypUlvR9dpGgw-118" target="T8izUvupypUlvR9dpGgw-6" edge="1">
          <mxGeometry width="50" height="50" relative="1" as="geometry">
            <mxPoint x="1432" y="3137" as="sourcePoint" />
            <mxPoint x="1482" y="3087" as="targetPoint" />
          </mxGeometry>
        </mxCell>
        <mxCell id="T8izUvupypUlvR9dpGgw-120" value="" style="endArrow=classic;html=1;rounded=0;entryX=-0.028;entryY=0.226;entryDx=0;entryDy=0;entryPerimeter=0;strokeWidth=3;fontStyle=1;exitX=0.991;exitY=0.452;exitDx=0;exitDy=0;exitPerimeter=0;" parent="1" source="T8izUvupypUlvR9dpGgw-5" target="T8izUvupypUlvR9dpGgw-6" edge="1">
          <mxGeometry width="50" height="50" relative="1" as="geometry">
            <mxPoint x="1090" y="3130" as="sourcePoint" />
            <mxPoint x="1141" y="2995" as="targetPoint" />
            <Array as="points">
              <mxPoint x="1142" y="3134" />
              <mxPoint x="1142" y="3019" />
            </Array>
          </mxGeometry>
        </mxCell>
        <mxCell id="T8izUvupypUlvR9dpGgw-121" value="" style="endArrow=classic;html=1;rounded=0;entryX=-0.03;entryY=0.722;entryDx=0;entryDy=0;entryPerimeter=0;strokeWidth=3;fontStyle=1" parent="1" target="T8izUvupypUlvR9dpGgw-22" edge="1">
          <mxGeometry width="50" height="50" relative="1" as="geometry">
            <mxPoint x="1177" y="2808" as="sourcePoint" />
            <mxPoint x="1265" y="2730" as="targetPoint" />
          </mxGeometry>
        </mxCell>
        <mxCell id="T8izUvupypUlvR9dpGgw-122" value="" style="endArrow=classic;html=1;rounded=0;exitX=1.014;exitY=0.223;exitDx=0;exitDy=0;exitPerimeter=0;strokeWidth=3;fontStyle=1" parent="1" source="T8izUvupypUlvR9dpGgw-6" edge="1">
          <mxGeometry width="50" height="50" relative="1" as="geometry">
            <mxPoint x="1500" y="3107" as="sourcePoint" />
            <mxPoint x="1977" y="3019" as="targetPoint" />
          </mxGeometry>
        </mxCell>
        <mxCell id="T8izUvupypUlvR9dpGgw-123" value="" style="endArrow=classic;html=1;rounded=0;exitX=1.008;exitY=0.488;exitDx=0;exitDy=0;entryX=0.75;entryY=1;entryDx=0;entryDy=0;exitPerimeter=0;strokeWidth=3;fontStyle=1" parent="1" source="T8izUvupypUlvR9dpGgw-6" target="T8izUvupypUlvR9dpGgw-109" edge="1">
          <mxGeometry width="50" height="50" relative="1" as="geometry">
            <mxPoint x="1505" y="3088" as="sourcePoint" />
            <mxPoint x="1555" y="3038" as="targetPoint" />
            <Array as="points">
              <mxPoint x="1932" y="3152" />
              <mxPoint x="1932" y="3070" />
            </Array>
          </mxGeometry>
        </mxCell>
        <mxCell id="T8izUvupypUlvR9dpGgw-124" value="" style="endArrow=classic;html=1;rounded=0;entryX=0.25;entryY=1;entryDx=0;entryDy=0;exitX=0.988;exitY=0.727;exitDx=0;exitDy=0;exitPerimeter=0;strokeWidth=3;fontStyle=1" parent="1" source="T8izUvupypUlvR9dpGgw-22" target="T8izUvupypUlvR9dpGgw-109" edge="1">
          <mxGeometry width="50" height="50" relative="1" as="geometry">
            <mxPoint x="1690" y="2892" as="sourcePoint" />
            <mxPoint x="1740" y="2842" as="targetPoint" />
            <Array as="points">
              <mxPoint x="1933" y="2809" />
              <mxPoint x="1933" y="2982" />
            </Array>
          </mxGeometry>
        </mxCell>
        <mxCell id="T8izUvupypUlvR9dpGgw-125" value="" style="endArrow=classic;html=1;rounded=0;exitX=0.996;exitY=0.804;exitDx=0;exitDy=0;exitPerimeter=0;entryX=0.5;entryY=0;entryDx=0;entryDy=0;strokeWidth=2;fillColor=#b1ddf0;strokeColor=#10739e;fontStyle=1" parent="1" source="T8izUvupypUlvR9dpGgw-6" target="T8izUvupypUlvR9dpGgw-12" edge="1">
          <mxGeometry width="50" height="50" relative="1" as="geometry">
            <mxPoint x="1917" y="3339" as="sourcePoint" />
            <mxPoint x="-275" y="2945" as="targetPoint" />
            <Array as="points">
              <mxPoint x="2100" y="3310" />
              <mxPoint x="2100" y="2450" />
              <mxPoint x="-297" y="2450" />
              <mxPoint x="-297" y="2844" />
              <mxPoint x="-160" y="2844" />
            </Array>
          </mxGeometry>
        </mxCell>
        <mxCell id="T8izUvupypUlvR9dpGgw-126" value="" style="endArrow=classic;html=1;rounded=0;exitX=0.978;exitY=0.872;exitDx=0;exitDy=0;exitPerimeter=0;entryX=0.005;entryY=0.538;entryDx=0;entryDy=0;entryPerimeter=0;strokeWidth=2;fontStyle=1" parent="1" source="T8izUvupypUlvR9dpGgw-6" target="T8izUvupypUlvR9dpGgw-12" edge="1">
          <mxGeometry width="50" height="50" relative="1" as="geometry">
            <mxPoint x="1075" y="2931" as="sourcePoint" />
            <mxPoint x="1125" y="2881" as="targetPoint" />
            <Array as="points">
              <mxPoint x="2120" y="3344" />
              <mxPoint x="2120" y="2430" />
              <mxPoint x="-270" y="2430" />
              <mxPoint x="-269" y="3101" />
            </Array>
          </mxGeometry>
        </mxCell>
        <mxCell id="T8izUvupypUlvR9dpGgw-127" value="" style="endArrow=classic;html=1;rounded=0;exitX=0.5;exitY=0;exitDx=0;exitDy=0;entryX=-0.005;entryY=0.458;entryDx=0;entryDy=0;entryPerimeter=0;strokeWidth=3;fontStyle=1" parent="1" source="T8izUvupypUlvR9dpGgw-109" target="T8izUvupypUlvR9dpGgw-12" edge="1">
          <mxGeometry width="50" height="50" relative="1" as="geometry">
            <mxPoint x="99" y="2891" as="sourcePoint" />
            <mxPoint x="149" y="2841" as="targetPoint" />
            <Array as="points">
              <mxPoint x="2080" y="3026" />
              <mxPoint x="2080" y="2470" />
              <mxPoint x="350" y="2470" />
              <mxPoint x="-250" y="2470" />
              <mxPoint x="-250" y="3072" />
            </Array>
          </mxGeometry>
        </mxCell>
        <mxCell id="T8izUvupypUlvR9dpGgw-128" value="" style="endArrow=classic;html=1;rounded=0;entryX=0.25;entryY=1;entryDx=0;entryDy=0;strokeWidth=3;fontStyle=1" parent="1" target="T8izUvupypUlvR9dpGgw-62" edge="1">
          <mxGeometry width="50" height="50" relative="1" as="geometry">
            <mxPoint x="940.4444444444445" y="3133" as="sourcePoint" />
            <mxPoint x="-399" y="2932" as="targetPoint" />
            <Array as="points">
              <mxPoint x="940" y="3457" />
              <mxPoint x="-920" y="3462" />
              <mxPoint x="-920" y="3100" />
            </Array>
          </mxGeometry>
        </mxCell>
        <mxCell id="T8izUvupypUlvR9dpGgw-129" value="" style="endArrow=classic;html=1;rounded=0;entryX=0.5;entryY=0;entryDx=0;entryDy=0;fillColor=#e51400;strokeColor=#B20000;fontStyle=1;exitX=0.995;exitY=0.863;exitDx=0;exitDy=0;exitPerimeter=0;strokeWidth=2;" parent="1" source="T8izUvupypUlvR9dpGgw-207" target="T8izUvupypUlvR9dpGgw-179" edge="1">
          <mxGeometry x="0.0001" y="6" width="50" height="50" relative="1" as="geometry">
            <mxPoint x="314" y="3342" as="sourcePoint" />
            <mxPoint x="600" y="3279" as="targetPoint" />
            <Array as="points">
              <mxPoint x="570" y="3350" />
            </Array>
            <mxPoint as="offset" />
          </mxGeometry>
        </mxCell>
        <mxCell id="T8izUvupypUlvR9dpGgw-130" value="" style="endArrow=classic;html=1;rounded=0;entryX=0.5;entryY=0;entryDx=0;entryDy=0;fillColor=#e51400;strokeColor=#B20000;fontStyle=1;exitX=0.983;exitY=0.902;exitDx=0;exitDy=0;exitPerimeter=0;strokeWidth=2;" parent="1" source="T8izUvupypUlvR9dpGgw-207" target="T8izUvupypUlvR9dpGgw-180" edge="1">
          <mxGeometry x="0.1858" y="2" width="50" height="50" relative="1" as="geometry">
            <mxPoint x="313" y="3359" as="sourcePoint" />
            <mxPoint x="499" y="3455" as="targetPoint" />
            <Array as="points">
              <mxPoint x="633" y="3370" />
            </Array>
            <mxPoint as="offset" />
          </mxGeometry>
        </mxCell>
        <mxCell id="T8izUvupypUlvR9dpGgw-131" value="" style="endArrow=classic;html=1;rounded=0;entryX=0.5;entryY=0;entryDx=0;entryDy=0;fillColor=#e51400;strokeColor=#B20000;fontStyle=1;strokeWidth=2;" parent="1" target="T8izUvupypUlvR9dpGgw-178" edge="1">
          <mxGeometry width="50" height="50" relative="1" as="geometry">
            <mxPoint x="188" y="3350" as="sourcePoint" />
            <mxPoint x="316" y="3316" as="targetPoint" />
            <Array as="points">
              <mxPoint x="188" y="3430" />
              <mxPoint x="435" y="3430" />
            </Array>
          </mxGeometry>
        </mxCell>
        <mxCell id="T8izUvupypUlvR9dpGgw-132" value="" style="endArrow=classic;html=1;rounded=0;entryX=0.5;entryY=0;entryDx=0;entryDy=0;fillColor=#e51400;strokeColor=#B20000;fontStyle=1;strokeWidth=2;" parent="1" target="T8izUvupypUlvR9dpGgw-177" edge="1">
          <mxGeometry width="50" height="50" relative="1" as="geometry">
            <mxPoint x="165" y="3370" as="sourcePoint" />
            <mxPoint x="316" y="3116" as="targetPoint" />
            <Array as="points">
              <mxPoint x="165" y="3440" />
              <mxPoint x="497" y="3440" />
            </Array>
          </mxGeometry>
        </mxCell>
        <mxCell id="T8izUvupypUlvR9dpGgw-133" value="" style="endArrow=classic;html=1;rounded=0;exitX=0;exitY=0.25;exitDx=0;exitDy=0;entryX=1;entryY=0.5;entryDx=0;entryDy=0;fillColor=#e51400;strokeColor=#B20000;fontStyle=1" parent="1" source="T8izUvupypUlvR9dpGgw-4" target="T8izUvupypUlvR9dpGgw-212" edge="1">
          <mxGeometry x="-0.0512" y="2" width="50" height="50" relative="1" as="geometry">
            <mxPoint x="195" y="3219" as="sourcePoint" />
            <mxPoint x="49" y="3173.5" as="targetPoint" />
            <Array as="points">
              <mxPoint x="-3" y="3537" />
              <mxPoint x="-3" y="3197" />
              <mxPoint x="49" y="3197" />
            </Array>
            <mxPoint y="1" as="offset" />
          </mxGeometry>
        </mxCell>
        <mxCell id="T8izUvupypUlvR9dpGgw-134" value="" style="endArrow=classic;html=1;rounded=0;entryX=1;entryY=0.5;entryDx=0;entryDy=0;exitX=0;exitY=0.75;exitDx=0;exitDy=0;fillColor=#e51400;strokeColor=#B20000;fontStyle=1" parent="1" source="T8izUvupypUlvR9dpGgw-4" target="T8izUvupypUlvR9dpGgw-210" edge="1">
          <mxGeometry x="0.7045" y="-21" width="50" height="50" relative="1" as="geometry">
            <mxPoint x="119" y="3539" as="sourcePoint" />
            <mxPoint x="49" y="3335.4999999999995" as="targetPoint" />
            <Array as="points">
              <mxPoint x="49" y="3626" />
            </Array>
            <mxPoint as="offset" />
          </mxGeometry>
        </mxCell>
        <mxCell id="T8izUvupypUlvR9dpGgw-135" value="" style="endArrow=classic;html=1;rounded=0;fillColor=#e51400;strokeColor=#B20000;fontStyle=1;entryX=0.993;entryY=0.256;entryDx=0;entryDy=0;entryPerimeter=0;" parent="1" target="T8izUvupypUlvR9dpGgw-4" edge="1">
          <mxGeometry x="0.8389" width="50" height="50" relative="1" as="geometry">
            <mxPoint x="985" y="2595" as="sourcePoint" />
            <mxPoint x="840" y="3536" as="targetPoint" />
            <Array as="points">
              <mxPoint x="982" y="3537" />
            </Array>
            <mxPoint as="offset" />
          </mxGeometry>
        </mxCell>
        <mxCell id="T8izUvupypUlvR9dpGgw-136" value="" style="endArrow=classic;html=1;rounded=0;entryX=0.994;entryY=0.503;entryDx=0;entryDy=0;fillColor=#e51400;strokeColor=#B20000;fontStyle=1;entryPerimeter=0;" parent="1" target="T8izUvupypUlvR9dpGgw-4" edge="1">
          <mxGeometry x="0.7276" y="-2" width="50" height="50" relative="1" as="geometry">
            <mxPoint x="1163" y="3240" as="sourcePoint" />
            <mxPoint x="1567" y="3411" as="targetPoint" />
            <Array as="points">
              <mxPoint x="1163" y="3582" />
            </Array>
            <mxPoint as="offset" />
          </mxGeometry>
        </mxCell>
        <mxCell id="T8izUvupypUlvR9dpGgw-137" value="" style="endArrow=classic;html=1;rounded=0;entryX=0.994;entryY=0.749;entryDx=0;entryDy=0;fillColor=#e51400;strokeColor=#B20000;fontStyle=1;entryPerimeter=0;" parent="1" target="T8izUvupypUlvR9dpGgw-4" edge="1">
          <mxGeometry x="0.8695" y="3" width="50" height="50" relative="1" as="geometry">
            <mxPoint x="1913" y="3310" as="sourcePoint" />
            <mxPoint x="1480" y="3554" as="targetPoint" />
            <Array as="points">
              <mxPoint x="1913" y="3626" />
            </Array>
            <mxPoint as="offset" />
          </mxGeometry>
        </mxCell>
        <mxCell id="T8izUvupypUlvR9dpGgw-138" value="" style="endArrow=classic;html=1;rounded=0;entryX=1;entryY=0.5;entryDx=0;entryDy=0;fillColor=#e51400;strokeColor=#B20000;fontStyle=1;exitX=0.5;exitY=0;exitDx=0;exitDy=0;" parent="1" source="T8izUvupypUlvR9dpGgw-182" edge="1">
          <mxGeometry x="0.6589" y="4" width="50" height="50" relative="1" as="geometry">
            <mxPoint x="803" y="3493" as="sourcePoint" />
            <mxPoint x="420" y="3258.24" as="targetPoint" />
            <Array as="points">
              <mxPoint x="800" y="3401" />
              <mxPoint x="516" y="3401" />
              <mxPoint x="516" y="3299" />
              <mxPoint x="420" y="3299" />
            </Array>
            <mxPoint x="-1" as="offset" />
          </mxGeometry>
        </mxCell>
        <mxCell id="T8izUvupypUlvR9dpGgw-139" value="" style="endArrow=classic;html=1;rounded=0;exitX=0.5;exitY=0;exitDx=0;exitDy=0;entryX=1;entryY=0.5;entryDx=0;entryDy=0;fillColor=#e51400;strokeColor=#B20000;fontStyle=1" parent="1" source="T8izUvupypUlvR9dpGgw-181" target="T8izUvupypUlvR9dpGgw-24" edge="1">
          <mxGeometry width="50" height="50" relative="1" as="geometry">
            <mxPoint x="520" y="3241" as="sourcePoint" />
            <mxPoint x="570" y="3191" as="targetPoint" />
            <Array as="points">
              <mxPoint x="706" y="3282" />
              <mxPoint x="617" y="3282" />
              <mxPoint x="617" y="3134" />
              <mxPoint x="419" y="3134" />
            </Array>
          </mxGeometry>
        </mxCell>
        <mxCell id="T8izUvupypUlvR9dpGgw-140" value="" style="endArrow=classic;html=1;rounded=0;entryX=0.75;entryY=1;entryDx=0;entryDy=0;strokeWidth=3;fontStyle=1" parent="1" target="T8izUvupypUlvR9dpGgw-25" edge="1">
          <mxGeometry width="50" height="50" relative="1" as="geometry">
            <mxPoint x="350" y="2470" as="sourcePoint" />
            <mxPoint x="364" y="2912" as="targetPoint" />
            <Array as="points">
              <mxPoint x="345" y="3232" />
            </Array>
          </mxGeometry>
        </mxCell>
        <mxCell id="T8izUvupypUlvR9dpGgw-141" value="" style="endArrow=classic;html=1;rounded=0;entryX=0.75;entryY=1;entryDx=0;entryDy=0;fontStyle=1" parent="1" target="T8izUvupypUlvR9dpGgw-24" edge="1">
          <mxGeometry width="50" height="50" relative="1" as="geometry">
            <mxPoint x="346" y="3083" as="sourcePoint" />
            <mxPoint x="573" y="2991" as="targetPoint" />
          </mxGeometry>
        </mxCell>
        <mxCell id="T8izUvupypUlvR9dpGgw-142" value="" style="endArrow=classic;html=1;rounded=0;entryX=0.5;entryY=1;entryDx=0;entryDy=0;strokeWidth=3;fontStyle=1" parent="1" target="T8izUvupypUlvR9dpGgw-25" edge="1">
          <mxGeometry width="50" height="50" relative="1" as="geometry">
            <mxPoint x="1142" y="3019" as="sourcePoint" />
            <mxPoint x="1142" y="2512" as="targetPoint" />
            <Array as="points">
              <mxPoint x="1142" y="2515" />
              <mxPoint x="380" y="2515" />
              <mxPoint x="376" y="3207" />
            </Array>
          </mxGeometry>
        </mxCell>
        <mxCell id="T8izUvupypUlvR9dpGgw-143" value="" style="endArrow=classic;html=1;rounded=0;entryX=0.5;entryY=1;entryDx=0;entryDy=0;fontStyle=1" parent="1" target="T8izUvupypUlvR9dpGgw-24" edge="1">
          <mxGeometry width="50" height="50" relative="1" as="geometry">
            <mxPoint x="377" y="3058" as="sourcePoint" />
            <mxPoint x="750" y="3000" as="targetPoint" />
          </mxGeometry>
        </mxCell>
        <mxCell id="T8izUvupypUlvR9dpGgw-144" value="" style="endArrow=classic;html=1;rounded=0;entryX=0.398;entryY=1.027;entryDx=0;entryDy=0;entryPerimeter=0;strokeWidth=3;fontStyle=1" parent="1" edge="1">
          <mxGeometry width="50" height="50" relative="1" as="geometry">
            <mxPoint x="13" y="3459" as="sourcePoint" />
            <mxPoint x="35.825000000000045" y="3097.648" as="targetPoint" />
            <Array as="points">
              <mxPoint x="13" y="3098" />
            </Array>
          </mxGeometry>
        </mxCell>
        <mxCell id="T8izUvupypUlvR9dpGgw-145" value="" style="endArrow=classic;html=1;rounded=0;entryX=0.387;entryY=0.999;entryDx=0;entryDy=0;entryPerimeter=0;strokeWidth=3;fontStyle=1" parent="1" edge="1">
          <mxGeometry width="50" height="50" relative="1" as="geometry">
            <mxPoint x="13" y="3258" as="sourcePoint" />
            <mxPoint x="36.524999999999864" y="3258.2619999999997" as="targetPoint" />
          </mxGeometry>
        </mxCell>
        <mxCell id="T8izUvupypUlvR9dpGgw-146" value="" style="endArrow=classic;html=1;rounded=0;entryX=0.808;entryY=0.976;entryDx=0;entryDy=0;entryPerimeter=0;strokeWidth=3;fontStyle=1" parent="1" edge="1">
          <mxGeometry width="50" height="50" relative="1" as="geometry">
            <mxPoint x="345" y="3231" as="sourcePoint" />
            <mxPoint x="37.100000000000136" y="3149.308" as="targetPoint" />
            <Array as="points">
              <mxPoint x="346" y="3514" />
              <mxPoint x="-11" y="3512" />
              <mxPoint x="-11" y="3149" />
            </Array>
          </mxGeometry>
        </mxCell>
        <mxCell id="T8izUvupypUlvR9dpGgw-147" value="" style="endArrow=classic;html=1;rounded=0;entryX=0.602;entryY=1.005;entryDx=0;entryDy=0;entryPerimeter=0;strokeWidth=3;fontStyle=1" parent="1" edge="1">
          <mxGeometry width="50" height="50" relative="1" as="geometry">
            <mxPoint x="376" y="3207" as="sourcePoint" />
            <mxPoint x="36.375" y="3123.352" as="targetPoint" />
            <Array as="points">
              <mxPoint x="376" y="3485" />
              <mxPoint x="-79" y="3485" />
              <mxPoint x="-79" y="3123" />
            </Array>
          </mxGeometry>
        </mxCell>
        <mxCell id="T8izUvupypUlvR9dpGgw-148" value="" style="endArrow=classic;html=1;rounded=0;entryX=0.614;entryY=1.057;entryDx=0;entryDy=0;entryPerimeter=0;strokeWidth=3;fontStyle=1" parent="1" edge="1">
          <mxGeometry width="50" height="50" relative="1" as="geometry">
            <mxPoint x="-79" y="3287" as="sourcePoint" />
            <mxPoint x="35.075000000000045" y="3286.864" as="targetPoint" />
          </mxGeometry>
        </mxCell>
        <mxCell id="T8izUvupypUlvR9dpGgw-149" value="" style="endArrow=classic;html=1;rounded=0;entryX=0.827;entryY=0.952;entryDx=0;entryDy=0;entryPerimeter=0;strokeWidth=3;fontStyle=1" parent="1" edge="1">
          <mxGeometry width="50" height="50" relative="1" as="geometry">
            <mxPoint x="-78" y="3314" as="sourcePoint" />
            <mxPoint x="37.700000000000045" y="3313.702" as="targetPoint" />
          </mxGeometry>
        </mxCell>
        <mxCell id="T8izUvupypUlvR9dpGgw-150" value="&lt;font style=&quot;font-size: 25px;&quot;&gt;OR&lt;/font&gt;" style="rounded=0;whiteSpace=wrap;html=1;strokeWidth=3;fontStyle=1" parent="1" vertex="1">
          <mxGeometry x="-506" y="3503" width="84" height="75" as="geometry" />
        </mxCell>
        <mxCell id="T8izUvupypUlvR9dpGgw-151" value="&lt;span&gt;stall_jmp&lt;/span&gt;" style="text;strokeColor=none;align=left;fillColor=none;html=1;verticalAlign=middle;whiteSpace=wrap;rounded=0;strokeWidth=5;fontSize=16;fontStyle=1" parent="1" vertex="1">
          <mxGeometry x="-751" y="2991" width="60" height="30" as="geometry" />
        </mxCell>
        <mxCell id="T8izUvupypUlvR9dpGgw-152" value="&lt;span&gt;stall_axi&lt;/span&gt;" style="text;strokeColor=none;align=left;fillColor=none;html=1;verticalAlign=middle;whiteSpace=wrap;rounded=0;strokeWidth=5;fontSize=16;fontStyle=1" parent="1" vertex="1">
          <mxGeometry x="-751" y="3015.74" width="60" height="30" as="geometry" />
        </mxCell>
        <mxCell id="T8izUvupypUlvR9dpGgw-153" value="&lt;span&gt;pc_axi&lt;/span&gt;" style="text;strokeColor=none;align=left;fillColor=none;html=1;verticalAlign=middle;whiteSpace=wrap;rounded=0;strokeWidth=5;fontSize=16;fontStyle=1" parent="1" vertex="1">
          <mxGeometry x="-751" y="3175.61" width="60" height="30" as="geometry" />
        </mxCell>
        <mxCell id="T8izUvupypUlvR9dpGgw-154" value="" style="endArrow=classic;html=1;rounded=0;exitX=1.001;exitY=0.606;exitDx=0;exitDy=0;exitPerimeter=0;entryX=0;entryY=0.5;entryDx=0;entryDy=0;strokeWidth=3;fontStyle=1" parent="1" source="T8izUvupypUlvR9dpGgw-84" target="T8izUvupypUlvR9dpGgw-153" edge="1">
          <mxGeometry width="50" height="50" relative="1" as="geometry">
            <mxPoint x="1210" y="3261" as="sourcePoint" />
            <mxPoint x="1260" y="3211" as="targetPoint" />
            <Array as="points">
              <mxPoint x="2000" y="3753" />
              <mxPoint x="2000" y="3860" />
              <mxPoint x="-850" y="3850" />
              <mxPoint x="-850" y="3190" />
            </Array>
          </mxGeometry>
        </mxCell>
        <mxCell id="T8izUvupypUlvR9dpGgw-155" value="" style="endArrow=classic;html=1;rounded=0;exitX=1;exitY=0.25;exitDx=0;exitDy=0;entryX=0;entryY=0.5;entryDx=0;entryDy=0;fontStyle=1" parent="1" source="T8izUvupypUlvR9dpGgw-84" target="T8izUvupypUlvR9dpGgw-152" edge="1">
          <mxGeometry width="50" height="50" relative="1" as="geometry">
            <mxPoint x="366" y="3449" as="sourcePoint" />
            <mxPoint x="416" y="3399" as="targetPoint" />
            <Array as="points">
              <mxPoint x="1960" y="3710" />
              <mxPoint x="1960" y="3830" />
              <mxPoint x="-940" y="3820" />
              <mxPoint x="-940" y="3030" />
            </Array>
          </mxGeometry>
        </mxCell>
        <mxCell id="T8izUvupypUlvR9dpGgw-157" value="" style="endArrow=classic;html=1;rounded=0;exitX=1;exitY=0.5;exitDx=0;exitDy=0;entryX=0.5;entryY=1;entryDx=0;entryDy=0;fontStyle=1" parent="1" source="T8izUvupypUlvR9dpGgw-150" target="T8izUvupypUlvR9dpGgw-2" edge="1">
          <mxGeometry x="-0.0032" width="50" height="50" relative="1" as="geometry">
            <mxPoint x="2" y="3060" as="sourcePoint" />
            <mxPoint x="52" y="3010" as="targetPoint" />
            <Array as="points">
              <mxPoint x="-372" y="3540" />
            </Array>
            <mxPoint as="offset" />
          </mxGeometry>
        </mxCell>
        <mxCell id="T8izUvupypUlvR9dpGgw-158" value="" style="endArrow=classic;html=1;rounded=0;entryX=0;entryY=0.25;entryDx=0;entryDy=0;fontStyle=1;strokeColor=#6c8ebf;" parent="1" edge="1">
          <mxGeometry width="50" height="50" relative="1" as="geometry">
            <mxPoint x="-813" y="2650" as="sourcePoint" />
            <mxPoint x="-506" y="3520.749999999999" as="targetPoint" />
            <Array as="points">
              <mxPoint x="-880" y="2650" />
              <mxPoint x="-880" y="3521" />
            </Array>
          </mxGeometry>
        </mxCell>
        <mxCell id="T8izUvupypUlvR9dpGgw-159" value="" style="endArrow=classic;html=1;rounded=0;exitX=1;exitY=0.5;exitDx=0;exitDy=0;entryX=0;entryY=0.5;entryDx=0;entryDy=0;fontStyle=1;strokeColor=#ff0000;" parent="1" source="T8izUvupypUlvR9dpGgw-82" target="T8izUvupypUlvR9dpGgw-150" edge="1">
          <mxGeometry width="50" height="50" relative="1" as="geometry">
            <mxPoint x="-42" y="2870" as="sourcePoint" />
            <mxPoint x="-1180" y="2341" as="targetPoint" />
            <Array as="points">
              <mxPoint x="208" y="2529" />
              <mxPoint x="208" y="2390" />
              <mxPoint x="-960" y="2390" />
              <mxPoint x="-960" y="3541" />
            </Array>
          </mxGeometry>
        </mxCell>
        <mxCell id="T8izUvupypUlvR9dpGgw-160" value="" style="endArrow=classic;html=1;rounded=0;entryX=0;entryY=0.5;entryDx=0;entryDy=0;fontStyle=1;strokeColor=#ff0000;" parent="1" target="T8izUvupypUlvR9dpGgw-151" edge="1">
          <mxGeometry width="50" height="50" relative="1" as="geometry">
            <mxPoint x="-960" y="3006" as="sourcePoint" />
            <mxPoint x="-802" y="2868" as="targetPoint" />
          </mxGeometry>
        </mxCell>
        <mxCell id="T8izUvupypUlvR9dpGgw-161" value="&lt;font style=&quot;font-size: 25px;&quot;&gt;OR&lt;/font&gt;" style="rounded=0;whiteSpace=wrap;html=1;strokeWidth=3;fontStyle=1" parent="1" vertex="1">
          <mxGeometry x="-506" y="3622" width="84" height="75" as="geometry" />
        </mxCell>
        <mxCell id="T8izUvupypUlvR9dpGgw-162" value="" style="endArrow=classic;html=1;rounded=0;entryX=0.5;entryY=1;entryDx=0;entryDy=0;exitX=1;exitY=0.5;exitDx=0;exitDy=0;fontStyle=1" parent="1" source="T8izUvupypUlvR9dpGgw-161" target="T8izUvupypUlvR9dpGgw-207" edge="1">
          <mxGeometry width="50" height="50" relative="1" as="geometry">
            <mxPoint x="-649" y="3124" as="sourcePoint" />
            <mxPoint x="287.5" y="3408" as="targetPoint" />
            <Array as="points">
              <mxPoint x="288" y="3660" />
            </Array>
          </mxGeometry>
        </mxCell>
        <mxCell id="T8izUvupypUlvR9dpGgw-163" value="" style="endArrow=classic;html=1;rounded=0;entryX=0;entryY=0.25;entryDx=0;entryDy=0;fontStyle=1;strokeColor=#6c8ebf;" parent="1" edge="1">
          <mxGeometry width="50" height="50" relative="1" as="geometry">
            <mxPoint x="-748" y="3521" as="sourcePoint" />
            <mxPoint x="-506" y="3642.75" as="targetPoint" />
            <Array as="points">
              <mxPoint x="-748" y="3643" />
            </Array>
          </mxGeometry>
        </mxCell>
        <mxCell id="T8izUvupypUlvR9dpGgw-164" value="" style="endArrow=classic;html=1;rounded=0;fontStyle=1" parent="1" edge="1">
          <mxGeometry width="50" height="50" relative="1" as="geometry">
            <mxPoint x="-540" y="3678" as="sourcePoint" />
            <mxPoint x="-506" y="3678" as="targetPoint" />
          </mxGeometry>
        </mxCell>
        <mxCell id="T8izUvupypUlvR9dpGgw-166" value="DataD_AXI" style="text;strokeColor=none;align=left;fillColor=none;html=1;verticalAlign=middle;whiteSpace=wrap;rounded=0;fontStyle=1" parent="1" vertex="1">
          <mxGeometry x="1024" y="3695" width="60" height="30" as="geometry" />
        </mxCell>
        <mxCell id="T8izUvupypUlvR9dpGgw-167" value="AddrD_AXI" style="text;strokeColor=none;align=left;fillColor=none;html=1;verticalAlign=middle;whiteSpace=wrap;rounded=0;fontStyle=1" parent="1" vertex="1">
          <mxGeometry x="1024" y="3725" width="60" height="30" as="geometry" />
        </mxCell>
        <mxCell id="T8izUvupypUlvR9dpGgw-168" value="" style="endArrow=classic;html=1;rounded=0;exitX=1;exitY=0.25;exitDx=0;exitDy=0;entryX=0;entryY=0.25;entryDx=0;entryDy=0;fontStyle=1" parent="1" source="T8izUvupypUlvR9dpGgw-41" target="T8izUvupypUlvR9dpGgw-84" edge="1">
          <mxGeometry width="50" height="50" relative="1" as="geometry">
            <mxPoint x="1570" y="3770" as="sourcePoint" />
            <mxPoint x="1620" y="3720" as="targetPoint" />
          </mxGeometry>
        </mxCell>
        <mxCell id="T8izUvupypUlvR9dpGgw-169" value="stall_decision" style="text;strokeColor=none;align=left;fillColor=none;html=1;verticalAlign=middle;whiteSpace=wrap;rounded=0;fontStyle=1" parent="1" vertex="1">
          <mxGeometry x="1520" y="3693.5" width="60" height="30" as="geometry" />
        </mxCell>
        <mxCell id="T8izUvupypUlvR9dpGgw-170" value="" style="endArrow=classic;html=1;rounded=0;entryX=0;entryY=0.75;entryDx=0;entryDy=0;fontStyle=1" parent="1" target="T8izUvupypUlvR9dpGgw-150" edge="1">
          <mxGeometry width="50" height="50" relative="1" as="geometry">
            <mxPoint x="-540" y="3820" as="sourcePoint" />
            <mxPoint x="-430" y="3700" as="targetPoint" />
            <Array as="points">
              <mxPoint x="-540" y="3559" />
            </Array>
          </mxGeometry>
        </mxCell>
        <mxCell id="T8izUvupypUlvR9dpGgw-171" value="stall_enable" style="text;strokeColor=none;align=left;fillColor=none;html=1;verticalAlign=middle;whiteSpace=wrap;rounded=0;fontStyle=1" parent="1" vertex="1">
          <mxGeometry x="1686" y="3700" width="60" height="17" as="geometry" />
        </mxCell>
        <mxCell id="T8izUvupypUlvR9dpGgw-172" value="pc4" style="text;strokeColor=none;align=left;fillColor=none;html=1;verticalAlign=middle;whiteSpace=wrap;rounded=0;fontStyle=1" parent="1" vertex="1">
          <mxGeometry x="1686" y="3760.5" width="60" height="17" as="geometry" />
        </mxCell>
        <mxCell id="T8izUvupypUlvR9dpGgw-173" value="stall" style="text;strokeColor=none;align=left;fillColor=none;html=1;verticalAlign=middle;whiteSpace=wrap;rounded=0;fontStyle=1" parent="1" vertex="1">
          <mxGeometry x="1890" y="3700" width="34.5" height="17" as="geometry" />
        </mxCell>
        <mxCell id="T8izUvupypUlvR9dpGgw-174" value="pc_out" style="text;strokeColor=none;align=left;fillColor=none;html=1;verticalAlign=middle;whiteSpace=wrap;rounded=0;fontStyle=1" parent="1" vertex="1">
          <mxGeometry x="1880.5" y="3743.5" width="34.5" height="17" as="geometry" />
        </mxCell>
        <mxCell id="T8izUvupypUlvR9dpGgw-176" value="PCSel" style="endArrow=classic;html=1;rounded=0;entryX=0.001;entryY=0.07;entryDx=0;entryDy=0;entryPerimeter=0;exitX=0.761;exitY=0.069;exitDx=0;exitDy=0;exitPerimeter=0;fillColor=#b1ddf0;strokeColor=#10739e;fontStyle=1" parent="1" target="T8izUvupypUlvR9dpGgw-20" edge="1">
          <mxGeometry width="50" height="50" relative="1" as="geometry">
            <mxPoint x="-122.18000000000029" y="2575.8" as="sourcePoint" />
            <mxPoint x="262.5" y="2575" as="targetPoint" />
          </mxGeometry>
        </mxCell>
        <mxCell id="T8izUvupypUlvR9dpGgw-175" value="&lt;span style=&quot;font-size: 22px;&quot;&gt;&lt;span&gt;CONTROL&lt;/span&gt;&lt;/span&gt;" style="ellipse;whiteSpace=wrap;html=1;fillColor=#dae8fc;strokeColor=#6c8ebf;fontStyle=1" parent="1" vertex="1">
          <mxGeometry x="-213" y="2550" width="120" height="219" as="geometry" />
        </mxCell>
        <mxCell id="T8izUvupypUlvR9dpGgw-20" value="" style="rounded=0;whiteSpace=wrap;html=1;fillColor=#dae8fc;strokeColor=#6c8ebf;strokeWidth=2;fontStyle=1" parent="1" vertex="1">
          <mxGeometry x="262.5" y="2550" width="50" height="360" as="geometry" />
        </mxCell>
        <mxCell id="T8izUvupypUlvR9dpGgw-177" value="ID_RS2" style="text;strokeColor=none;align=left;fillColor=none;html=1;verticalAlign=middle;whiteSpace=wrap;rounded=0;fontStyle=1" parent="1" vertex="1">
          <mxGeometry x="474" y="3492" width="46" height="30" as="geometry" />
        </mxCell>
        <mxCell id="T8izUvupypUlvR9dpGgw-178" value="ID_RS2" style="text;strokeColor=none;align=left;fillColor=none;html=1;verticalAlign=middle;whiteSpace=wrap;rounded=0;fontStyle=1" parent="1" vertex="1">
          <mxGeometry x="409" y="3492" width="51" height="30" as="geometry" />
        </mxCell>
        <mxCell id="T8izUvupypUlvR9dpGgw-179" value="EX_RS1" style="text;strokeColor=none;align=left;fillColor=none;html=1;verticalAlign=middle;whiteSpace=wrap;rounded=0;fontStyle=1" parent="1" vertex="1">
          <mxGeometry x="547" y="3492" width="46" height="30" as="geometry" />
        </mxCell>
        <mxCell id="T8izUvupypUlvR9dpGgw-180" value="EX_RS2" style="text;strokeColor=none;align=left;fillColor=none;html=1;verticalAlign=middle;whiteSpace=wrap;rounded=0;fontStyle=1" parent="1" vertex="1">
          <mxGeometry x="610" y="3492" width="46" height="30" as="geometry" />
        </mxCell>
        <mxCell id="T8izUvupypUlvR9dpGgw-181" value="FWD_A" style="text;strokeColor=none;align=left;fillColor=none;html=1;verticalAlign=middle;whiteSpace=wrap;rounded=0;fontStyle=1" parent="1" vertex="1">
          <mxGeometry x="683" y="3492" width="46" height="30" as="geometry" />
        </mxCell>
        <mxCell id="T8izUvupypUlvR9dpGgw-182" value="FWD_B" style="text;strokeColor=none;align=left;fillColor=none;html=1;verticalAlign=middle;whiteSpace=wrap;rounded=0;fontStyle=1" parent="1" vertex="1">
          <mxGeometry x="777" y="3492" width="46" height="30" as="geometry" />
        </mxCell>
        <mxCell id="T8izUvupypUlvR9dpGgw-183" value="EX_RegWEn" style="text;strokeColor=none;align=left;fillColor=none;html=1;verticalAlign=middle;whiteSpace=wrap;rounded=0;fontStyle=1" parent="1" vertex="1">
          <mxGeometry x="760" y="3522" width="46" height="30" as="geometry" />
        </mxCell>
        <mxCell id="T8izUvupypUlvR9dpGgw-184" value="MA_RegWEn" style="text;strokeColor=none;align=left;fillColor=none;html=1;verticalAlign=middle;whiteSpace=wrap;rounded=0;fontStyle=1" parent="1" vertex="1">
          <mxGeometry x="760" y="3566.5" width="46" height="30" as="geometry" />
        </mxCell>
        <mxCell id="T8izUvupypUlvR9dpGgw-185" value="WB_RegWEn" style="text;strokeColor=none;align=left;fillColor=none;html=1;verticalAlign=middle;whiteSpace=wrap;rounded=0;fontStyle=1" parent="1" vertex="1">
          <mxGeometry x="760" y="3610" width="46" height="30" as="geometry" />
        </mxCell>
        <mxCell id="T8izUvupypUlvR9dpGgw-186" value="FWD_BR_A" style="text;strokeColor=none;align=left;fillColor=none;html=1;verticalAlign=middle;whiteSpace=wrap;rounded=0;fontStyle=1" parent="1" vertex="1">
          <mxGeometry x="400" y="3522" width="80" height="30" as="geometry" />
        </mxCell>
        <mxCell id="T8izUvupypUlvR9dpGgw-187" value="FWD_BR_B" style="text;strokeColor=none;align=left;fillColor=none;html=1;verticalAlign=middle;whiteSpace=wrap;rounded=0;fontStyle=1" parent="1" vertex="1">
          <mxGeometry x="400" y="3610" width="80" height="30" as="geometry" />
        </mxCell>
        <mxCell id="T8izUvupypUlvR9dpGgw-189" value="&lt;b&gt;flush&lt;/b&gt;" style="text;html=1;align=center;verticalAlign=middle;whiteSpace=wrap;rounded=0;" parent="1" vertex="1">
          <mxGeometry x="-401" y="3382.5" width="60" height="30" as="geometry" />
        </mxCell>
        <mxCell id="T8izUvupypUlvR9dpGgw-190" value="&lt;b&gt;flush&lt;/b&gt;" style="text;html=1;align=center;verticalAlign=middle;whiteSpace=wrap;rounded=0;" parent="1" vertex="1">
          <mxGeometry x="257.5" y="3390" width="60" height="30" as="geometry" />
        </mxCell>
        <mxCell id="T8izUvupypUlvR9dpGgw-191" value="" style="triangle;whiteSpace=wrap;html=1;rotation=0;strokeWidth=2;fillColor=#dae8fc;strokeColor=#6c8ebf;" parent="1" vertex="1">
          <mxGeometry x="-396" y="3310" width="15" height="20" as="geometry" />
        </mxCell>
        <mxCell id="T8izUvupypUlvR9dpGgw-192" value="" style="triangle;whiteSpace=wrap;html=1;rotation=0;strokeWidth=2;fillColor=#dae8fc;strokeColor=#6c8ebf;" parent="1" vertex="1">
          <mxGeometry x="262.5" y="3308" width="15" height="20" as="geometry" />
        </mxCell>
        <mxCell id="T8izUvupypUlvR9dpGgw-195" value="ALU_A" style="text;strokeColor=none;align=left;fillColor=none;html=1;verticalAlign=middle;whiteSpace=wrap;rounded=0;fontStyle=1" parent="1" vertex="1">
          <mxGeometry x="683" y="3075" width="46" height="30" as="geometry" />
        </mxCell>
        <mxCell id="T8izUvupypUlvR9dpGgw-196" value="ALU_B" style="text;strokeColor=none;align=left;fillColor=none;html=1;verticalAlign=middle;whiteSpace=wrap;rounded=0;fontStyle=1" parent="1" vertex="1">
          <mxGeometry x="683" y="3166.25" width="46" height="30" as="geometry" />
        </mxCell>
        <mxCell id="T8izUvupypUlvR9dpGgw-197" value="ALU&lt;div&gt;Result&lt;/div&gt;" style="text;strokeColor=none;align=left;fillColor=none;html=1;verticalAlign=middle;whiteSpace=wrap;rounded=0;fontStyle=1" parent="1" vertex="1">
          <mxGeometry x="780" y="3116.98" width="46" height="30" as="geometry" />
        </mxCell>
        <mxCell id="T8izUvupypUlvR9dpGgw-198" value="FWD_BR_A" style="text;strokeColor=none;align=left;fillColor=none;html=1;verticalAlign=middle;whiteSpace=wrap;rounded=0;fontStyle=1" parent="1" vertex="1">
          <mxGeometry x="1174.5" y="3554" width="80" height="30" as="geometry" />
        </mxCell>
        <mxCell id="T8izUvupypUlvR9dpGgw-199" value="" style="triangle;whiteSpace=wrap;html=1;rotation=0;strokeWidth=2;fillColor=#dae8fc;strokeColor=#6c8ebf;" parent="1" vertex="1">
          <mxGeometry x="1037" y="3350" width="15" height="20" as="geometry" />
        </mxCell>
        <mxCell id="T8izUvupypUlvR9dpGgw-200" value="" style="triangle;whiteSpace=wrap;html=1;rotation=0;strokeWidth=2;fillColor=#dae8fc;strokeColor=#6c8ebf;" parent="1" vertex="1">
          <mxGeometry x="1804" y="3350" width="15" height="20" as="geometry" />
        </mxCell>
        <mxCell id="T8izUvupypUlvR9dpGgw-202" value="&lt;span style=&quot;font-size: 30px;&quot;&gt;REG&lt;/span&gt;" style="text;html=1;align=center;verticalAlign=middle;whiteSpace=wrap;rounded=0;fontSize=22;fontStyle=1" parent="1" vertex="1">
          <mxGeometry x="-220" y="2940" width="120" height="75.25" as="geometry" />
        </mxCell>
        <mxCell id="T8izUvupypUlvR9dpGgw-203" value="" style="triangle;whiteSpace=wrap;html=1;rotation=0;strokeWidth=2;fillColor=#ffffff;strokeColor=#000000;" parent="1" vertex="1">
          <mxGeometry x="-220" y="3224.74" width="15" height="20" as="geometry" />
        </mxCell>
        <mxCell id="T8izUvupypUlvR9dpGgw-204" value="" style="triangle;whiteSpace=wrap;html=1;rotation=0;strokeWidth=2;fillColor=#ffffff;strokeColor=#000000;" parent="1" vertex="1">
          <mxGeometry x="-751" y="3236.87" width="15" height="20" as="geometry" />
        </mxCell>
        <mxCell id="T8izUvupypUlvR9dpGgw-206" value="" style="triangle;whiteSpace=wrap;html=1;rotation=0;strokeWidth=2;fillColor=#ffffff;strokeColor=#000000;" parent="1" vertex="1">
          <mxGeometry x="1021" y="3777.5" width="15" height="20" as="geometry" />
        </mxCell>
        <mxCell id="T8izUvupypUlvR9dpGgw-208" value="" style="group" parent="1" vertex="1" connectable="0">
          <mxGeometry x="-142" y="3374" width="60" height="72" as="geometry" />
        </mxCell>
        <mxCell id="T8izUvupypUlvR9dpGgw-1" value="" style="shape=trapezoid;perimeter=trapezoidPerimeter;whiteSpace=wrap;html=1;fixedSize=1;rotation=90;strokeWidth=2;fontStyle=1" parent="T8izUvupypUlvR9dpGgw-208" vertex="1">
          <mxGeometry x="-3" y="13.826086956521738" width="69" height="44.34782608695652" as="geometry" />
        </mxCell>
        <mxCell id="T8izUvupypUlvR9dpGgw-13" value="&lt;span&gt;&lt;font style=&quot;font-size: 15px;&quot;&gt;Imm&lt;/font&gt;&lt;/span&gt;&lt;div&gt;&lt;span&gt;&lt;font style=&quot;font-size: 15px;&quot;&gt;Gen&lt;/font&gt;&lt;/span&gt;&lt;/div&gt;" style="text;strokeColor=none;align=center;fillColor=none;html=1;verticalAlign=middle;whiteSpace=wrap;rounded=0;fontStyle=1" parent="T8izUvupypUlvR9dpGgw-208" vertex="1">
          <mxGeometry y="23.217391304347824" width="60" height="25.565217391304348" as="geometry" />
        </mxCell>
        <mxCell id="T8izUvupypUlvR9dpGgw-67" value="&lt;span&gt;AddrA&lt;/span&gt;" style="endArrow=classic;html=1;rounded=0;strokeWidth=2;fontStyle=1" parent="1" edge="1">
          <mxGeometry x="0.2016" y="4" width="50" height="50" relative="1" as="geometry">
            <mxPoint x="-283" y="3131" as="sourcePoint" />
            <mxPoint x="261" y="3350" as="targetPoint" />
            <Array as="points">
              <mxPoint x="-283" y="3350" />
            </Array>
            <mxPoint as="offset" />
          </mxGeometry>
        </mxCell>
        <mxCell id="T8izUvupypUlvR9dpGgw-68" value="&lt;span&gt;AddrB&lt;/span&gt;" style="endArrow=classic;html=1;rounded=0;entryX=-0.015;entryY=0.901;entryDx=0;entryDy=0;entryPerimeter=0;strokeWidth=2;fontStyle=1" parent="1" target="T8izUvupypUlvR9dpGgw-207" edge="1">
          <mxGeometry x="0.168" width="50" height="50" relative="1" as="geometry">
            <mxPoint x="-269" y="3157" as="sourcePoint" />
            <mxPoint x="261.75" y="3353.5" as="targetPoint" />
            <Array as="points">
              <mxPoint x="-270" y="3370" />
            </Array>
            <mxPoint as="offset" />
          </mxGeometry>
        </mxCell>
        <mxCell id="T8izUvupypUlvR9dpGgw-210" value="0&lt;span style=&quot;white-space: pre;&quot;&gt;&#x9;&lt;/span&gt;1&lt;span style=&quot;white-space: pre;&quot;&gt;&#x9;&lt;/span&gt;2&lt;span style=&quot;white-space: pre;&quot;&gt;&#x9;&lt;/span&gt;3" style="rounded=1;whiteSpace=wrap;html=1;arcSize=50;rotation=90;fontStyle=1;strokeWidth=2;" parent="1" vertex="1">
          <mxGeometry x="-3" y="3259.87" width="104" height="25" as="geometry" />
        </mxCell>
        <mxCell id="T8izUvupypUlvR9dpGgw-211" style="edgeStyle=orthogonalEdgeStyle;rounded=0;orthogonalLoop=1;jettySize=auto;html=1;entryX=0.798;entryY=1.001;entryDx=0;entryDy=0;entryPerimeter=0;" parent="1" source="T8izUvupypUlvR9dpGgw-210" target="T8izUvupypUlvR9dpGgw-14" edge="1">
          <mxGeometry relative="1" as="geometry" />
        </mxCell>
        <mxCell id="T8izUvupypUlvR9dpGgw-212" value="0&lt;span style=&quot;white-space: pre;&quot;&gt;&#x9;&lt;/span&gt;1&lt;span style=&quot;white-space: pre;&quot;&gt;&#x9;&lt;/span&gt;2&lt;span style=&quot;white-space: pre;&quot;&gt;&#x9;&lt;/span&gt;3" style="rounded=1;whiteSpace=wrap;html=1;arcSize=50;rotation=90;fontStyle=1;strokeWidth=2;" parent="1" vertex="1">
          <mxGeometry x="0.5" y="3097.36" width="97" height="25" as="geometry" />
        </mxCell>
        <mxCell id="T8izUvupypUlvR9dpGgw-213" value="" style="endArrow=classic;html=1;rounded=0;exitX=0.5;exitY=0;exitDx=0;exitDy=0;entryX=0.224;entryY=1.015;entryDx=0;entryDy=0;entryPerimeter=0;" parent="1" source="T8izUvupypUlvR9dpGgw-212" target="T8izUvupypUlvR9dpGgw-14" edge="1">
          <mxGeometry width="50" height="50" relative="1" as="geometry">
            <mxPoint x="40" y="3130" as="sourcePoint" />
            <mxPoint x="100" y="3110" as="targetPoint" />
          </mxGeometry>
        </mxCell>
        <mxCell id="T8izUvupypUlvR9dpGgw-214" value="&lt;span style=&quot;font-size: 11px;&quot;&gt;RegWEn&lt;/span&gt;" style="text;strokeColor=none;align=center;fillColor=none;html=1;verticalAlign=middle;whiteSpace=wrap;rounded=0;fontStyle=1" parent="1" vertex="1">
          <mxGeometry x="-190" y="2910" width="60" height="24.5" as="geometry" />
        </mxCell>
        <mxCell id="T8izUvupypUlvR9dpGgw-215" value="&lt;span style=&quot;font-size: 11px;&quot;&gt;RegWEn_AXI&lt;/span&gt;" style="text;strokeColor=none;align=center;fillColor=none;html=1;verticalAlign=middle;whiteSpace=wrap;rounded=0;fontStyle=1" parent="1" vertex="1">
          <mxGeometry x="-190" y="3239.5" width="60" height="24.5" as="geometry" />
        </mxCell>
        <mxCell id="T8izUvupypUlvR9dpGgw-216" value="" style="endArrow=none;html=1;rounded=0;strokeWidth=3;" parent="1" edge="1">
          <mxGeometry width="50" height="50" relative="1" as="geometry">
            <mxPoint x="-324" y="3080" as="sourcePoint" />
            <mxPoint x="-324" y="3180" as="targetPoint" />
          </mxGeometry>
        </mxCell>
        <mxCell id="T8izUvupypUlvR9dpGgw-218" value="" style="endArrow=classic;html=1;rounded=0;strokeWidth=3;" parent="1" edge="1">
          <mxGeometry width="50" height="50" relative="1" as="geometry">
            <mxPoint x="1470" y="3800" as="sourcePoint" />
            <mxPoint x="2080" y="3880" as="targetPoint" />
            <Array as="points">
              <mxPoint x="1470" y="3880" />
            </Array>
          </mxGeometry>
        </mxCell>
        <mxCell id="T8izUvupypUlvR9dpGgw-219" value="M_AXI_LITE" style="text;strokeColor=none;align=left;fillColor=none;html=1;verticalAlign=middle;whiteSpace=wrap;rounded=0;fontStyle=1" parent="1" vertex="1">
          <mxGeometry x="1440" y="3780" width="60" height="17.5" as="geometry" />
        </mxCell>
      </root>
    </mxGraphModel>
  </diagram>
</mxfile>
